/* XPM */
static char * 5_xpm[] = {
"32 32 10 1",
" 	c #3F3851",
".	c #000000",
"+	c #91EA9C",
"@	c #48C38A",
"#	c #37AB9C",
"$	c #298A91",
"%	c #F0F7F4",
"&	c #B2D3CF",
"*	c #8CA9B5",
"=	c #25667E",
"                                ",
"                                ",
"                                ",
"                                ",
"                                ",
"                                ",
"                                ",
"                                ",
"                                ",
"                                ",
"                                ",
"          ...        ...        ",
"         .++@.      .++@.       ",
"         .@#..........##.       ",
"         ...#@@++@+@@#...       ",
"          .#@@@@@@@@@@$.        ",
"         ..@@.#@.#@@.@$.        ",
"        .%.##....##.%.$.        ",
"        .%%..++@+..%%.$.        ",
"        .&%*..@@..*%&.$.        ",
"         .*..#@@#..*.#@.        ",
"         ...........#@@#.       ",
"        .@.=$$$$$$$#@@.@@.      ",
"        .@.$$#@@@@@@@@.##.      ",
"         ..$@@@+@++@@#$..       ",
"           .#@......$$.         ",
"            ...     .=.         ",
"                     ..         ",
"                                ",
"                                ",
"                                ",
"                                "};
