/* XPM */
static char * w_b_xpm[] = {
"32 32 7 1",
" 	c #3F3851",
".	c #283028",
"+	c #685848",
"@	c #908070",
"#	c #B0A090",
"$	c #F8F8F8",
"%	c #D0C0B0",
"                                ",
"                                ",
"                                ",
"                                ",
"                                ",
"                                ",
"                                ",
"                                ",
"                                ",
"                                ",
"                                ",
"                                ",
"                                ",
"                                ",
"                                ",
"                                ",
"                                ",
".........  ..............  .....",
".+++..++....@+++.+++..++....@+++",
".@@++.++..+.#@++.@@++.++..+.#@++",
".#@@+.@@.++.##@+.#@@+.@@.++.##@+",
".$#@@....@+......$#@@....@+.....",
"......++.#@+++.@......++.#@+++.@",
"++.+++++.+++++.+++.+++++.+++++.+",
"++.+++++.+++++.+++.+++++.+++++.+",
"................................",
"................................",
"+++.+++++++.+++++++.+++++++.++++",
"@@@+@@@@@@@+@@@@@@@+@@@@@@@+@@@@",
"##@@@#####@@@#####@@@#####@@@###",
"%#####%%%#####%%%#####%%%#####%%",
"%%%%%%%$%%%%%%%$%%%%%%%$%%%%%%%$"};
