/* XPM */
static char * door_xpm[] = {
"32 32 197 2",
"  	c #000000",
". 	c #E5C473",
"+ 	c #FBCF75",
"@ 	c #E0A14B",
"# 	c #D28627",
"$ 	c #D68C2F",
"% 	c #CD8430",
"& 	c #B4672B",
"* 	c #A85629",
"= 	c #AA5929",
"- 	c #AB5A2A",
"; 	c #AD5B2A",
"> 	c #B05D2B",
", 	c #964A20",
"' 	c #260000",
") 	c #E4C473",
"! 	c #DEB667",
"~ 	c #F0BF68",
"{ 	c #CF9142",
"] 	c #BE7520",
"^ 	c #C27B28",
"/ 	c #BB7429",
"( 	c #A65B25",
"_ 	c #9C4C23",
": 	c #9E4F23",
"< 	c #9F5023",
"[ 	c #C5C5C5",
"} 	c #6C6C6C",
"| 	c #C6C6C6",
"1 	c #000004",
"2 	c #CB9242",
"3 	c #D59542",
"4 	c #A36325",
"5 	c #833A07",
"6 	c #89440F",
"7 	c #884211",
"8 	c #81360F",
"9 	c #7D300D",
"0 	c #7E310E",
"a 	c #4F4F4F",
"b 	c #565656",
"c 	c #00000E",
"d 	c #B97122",
"e 	c #BF711F",
"f 	c #853A07",
"g 	c #5A0000",
"h 	c #620000",
"i 	c #670200",
"j 	c #6B1300",
"k 	c #6C1900",
"l 	c #6C1800",
"m 	c #6C1700",
"n 	c #8D8D8D",
"o 	c #979797",
"p 	c #00000D",
"q 	c #A75D25",
"r 	c #AF5D23",
"s 	c #85350C",
"t 	c #690500",
"u 	c #6E1300",
"v 	c #701A00",
"w 	c #711D00",
"x 	c #721F00",
"y 	c #721E00",
"z 	c #6D6D6D",
"A 	c #731E00",
"B 	c #686868",
"C 	c #864422",
"D 	c #8F4520",
"E 	c #702A0E",
"F 	c #5D1300",
"G 	c #A6A6A6",
"H 	c #621B03",
"I 	c #651E04",
"J 	c #631900",
"K 	c #B6B6B6",
"L 	c #1C1C1C",
"M 	c #611502",
"N 	c #313131",
"O 	c #0C0C0C",
"P 	c #929292",
"Q 	c #601801",
"R 	c #A5A5A5",
"S 	c #5E0100",
"T 	c #5C0000",
"U 	c #5F0F00",
"V 	c #601502",
"W 	c #5F1402",
"X 	c #393939",
"Y 	c #9D9D9D",
"Z 	c #555555",
"` 	c #202020",
" .	c #C3C3C3",
"..	c #1B1B1B",
"+.	c #2B2B2B",
"@.	c #9C9C9C",
"#.	c #949494",
"$.	c #808080",
"%.	c #B9B9B9",
"&.	c #848484",
"*.	c #BFBFBF",
"=.	c #595959",
"-.	c #898989",
";.	c #9B5226",
">.	c #9A5126",
",.	c #995126",
"'.	c #878787",
").	c #CEB268",
"!.	c #B0B0B0",
"~.	c #4C4C4C",
"{.	c #1A1A1A",
"].	c #B3B3B3",
"^.	c #9C5327",
"/.	c #838383",
"(.	c #CB9244",
"_.	c #BE7924",
":.	c #C07D2A",
"<.	c #C17F2E",
"[.	c #A45324",
"}.	c #A4A4A4",
"|.	c #494949",
"1.	c #EDEDED",
"2.	c #151515",
"3.	c #3C3C3C",
"4.	c #999999",
"5.	c #F8C66C",
"6.	c #D69744",
"7.	c #C47821",
"8.	c #C77D29",
"9.	c #C8802C",
"0.	c #80330F",
"a.	c #82340F",
"b.	c #84350F",
"c.	c #6E260B",
"d.	c #6A6A6A",
"e.	c #333333",
"f.	c #000002",
"g.	c #CD9444",
"h.	c #D89844",
"i.	c #A66627",
"j.	c #863D08",
"k.	c #8C4610",
"l.	c #8E4913",
"m.	c #6D1800",
"n.	c #777777",
"o.	c #656565",
"p.	c #BDBDBD",
"q.	c #292929",
"r.	c #6F1800",
"s.	c #373737",
"t.	c #353535",
"u.	c #B87122",
"v.	c #660000",
"w.	c #676767",
"x.	c #535353",
"y.	c #9A9A9A",
"z.	c #070707",
"A.	c #6E1400",
"B.	c #701900",
"C.	c #661F04",
"D.	c #631800",
"E.	c #484848",
"F.	c #767676",
"G.	c #8B8B8B",
"H.	c #B7B7B7",
"I.	c #621A02",
"J.	c #CFB268",
"K.	c #E3BC6A",
"L.	c #9A5226",
"M.	c #E5BC6A",
"N.	c #000003",
"O.	c #CE9544",
"P.	c #404040",
"Q.	c #5C0C00",
"R.	c #34210C",
"S.	c #00000A",
"T.	c #751F00",
"U.	c #631700",
"V.	c #060003",
"W.	c #120009",
"X.	c #651D03",
"Y.	c #661E03",
"Z.	c #681E02",
"`.	c #BABABA",
" +	c #0F0F0F",
".+	c #884522",
"++	c #914621",
"@+	c #732C0F",
"#+	c #611700",
"$+	c #641B02",
"%+	c #A2A2A2",
"&+	c #000E11",
"*+	c #000E10",
"=+	c #000B0E",
"-+	c #000A10",
";+	c #000F11",
">+	c #0F1110",
"    . + @ # $ % & * = - - ; > , '   ) + @ # $ % & * = - - - - - ",
"    ! ~ { ] ^ / ( _ : < [ } } } } } } | { ] ^ / ( _ : < < < < < ",
"1   2 3 4 5 6 7 8 9 0 0 0 a         b 3 4 5 6 7 8 9 0 0 0 0 0 0 ",
"c   d e f g h i j k l m m n         o e f g h i j k l m m m m m ",
"p   q r s t u v w x y y z A         q B s t u v w x y y y y y y ",
"p   C D E F G H I J K L   M N       C O   P Q H I R S T U V W W ",
"          X   Y   Z     ` |  .        ..    +.  @.  +.          ",
"        P       #.  Z $.  %.&.$.*.=.P   -.    P       $.        ",
";.;.>.,.          '.).!.~.    $.*.    {.].^./.          (._.:.<.",
"[.[.[.[.[.}.|.    Z 1.2.      $.*.        K P     3.4.5.6.7.8.9.",
"0.0.0.0.0.a.b.c.!.  d.        $.*.        e.b.4.f.  g.h.i.j.k.l.",
"m m m m m m.n.o.p.  q.        $.*.          r.$.s.t.u.e f g h v.",
"y y y y y A w.  x.            $.*.          K y.  z.1.r s t A.B.",
"C.D.S T U M E.  F.            $.*.          G.H.    C D E F Q I.",
"            *.*.*.*.          $.*.          $.*.*.*.*.          ",
"        $.$.$.$.$.*.          $.*.          $.*.$.$.$.$.        ",
"    J.K.        $.*.          $.*.          $.*.        L.;.;.L.",
"    M.5.        $.*.          $.*.          $.*.        [.[.[.[.",
"N.  O.h.        $.*.          $.*.          $.*.        0.0.0.0.",
"c   d e f g h i j *.          $.*.          $.i j k l m m m m m ",
"p   q r s t P.  $.*.          $.*.          $.*.    *.y y y y y ",
"p   C D E F P.  $.*.          $.*.          $.*.    *.T U V W W ",
"            $.$.$.*.          $.*.          $.*.$.$.*.          ",
"      $.$.$.$.$.$.*.          $.*.          $.*.$.$.$.$.$.      ",
";.;.>.$.        $.*.          $.*.          $.*.        $._.:.<.",
"[.[.[.$.        $.*.          $.*.          $.*.        $.7.8.9.",
"0.0.0.$.        $.*.          $.*.          $.*.        $.j.k.l.",
"m m m m m m.r.Q.1 R.u.e f g h i j k l m m m.r.Q.S.  u.e f g h v.",
"y y y y y A T.U.V.P.P.P.P.P.P.P.P.P.P.P.P.P.P.'.W.  q r s t A.B.",
"X.X.X.X.X.Y.Z.`. +                              }.  .+++@+#+$+X.",
"            P } } } } } } } } } } } } } } } } } } %+            ",
"&+&+&+&+&+&+&+*+  =+p c -+;+;+&+&+&+&+&+&+&+&+;+>+  p c -+;+;+&+"};
