/* XPM */
static char * obst_xpm[] = {
"32 32 240 2",
"  	c #000000",
". 	c #7D6B3E",
"+ 	c #E5C473",
"@ 	c #FBCF75",
"# 	c #E0A14B",
"$ 	c #D28627",
"% 	c #D68C2F",
"& 	c #CD8430",
"* 	c #B4672B",
"= 	c #A85629",
"- 	c #AA5929",
"; 	c #AB5A2A",
"> 	c #AD5B2A",
", 	c #B05D2B",
"' 	c #964A20",
") 	c #260000",
"! 	c #75683D",
"~ 	c #E4C473",
"{ 	c #796337",
"] 	c #DEB667",
"^ 	c #F0BF68",
"/ 	c #CF9142",
"( 	c #BE7520",
"_ 	c #C27B28",
": 	c #BB7429",
"< 	c #A65B25",
"[ 	c #9C4C23",
"} 	c #9E4F23",
"| 	c #9F5023",
"1 	c #A05123",
"2 	c #A35324",
"3 	c #8A411B",
"4 	c #1D0000",
"5 	c #726137",
"6 	c #DCB666",
"7 	c #000004",
"8 	c #6F4F24",
"9 	c #CB9242",
"0 	c #D59542",
"a 	c #A36325",
"b 	c #833A07",
"c 	c #89440F",
"d 	c #884211",
"e 	c #81360F",
"f 	c #7D300D",
"g 	c #7E310E",
"h 	c #7F320E",
"i 	c #82330E",
"j 	c #6C250A",
"k 	c #000003",
"l 	c #6A4E25",
"m 	c #CA9242",
"n 	c #00000E",
"o 	c #653D16",
"p 	c #B97122",
"q 	c #BF711F",
"r 	c #853A07",
"s 	c #5A0000",
"t 	c #620000",
"u 	c #670200",
"v 	c #6B1300",
"w 	c #6C1900",
"x 	c #6C1800",
"y 	c #6C1700",
"z 	c #6D1800",
"A 	c #6F1800",
"B 	c #5C0C00",
"C 	c #00000A",
"D 	c #613D17",
"E 	c #B87122",
"F 	c #00000D",
"G 	c #5B3217",
"H 	c #A75D25",
"I 	c #AF5D23",
"J 	c #85350C",
"K 	c #690500",
"L 	c #6E1300",
"M 	c #701A00",
"N 	c #711D00",
"O 	c #721F00",
"P 	c #721E00",
"Q 	c #731E00",
"R 	c #751F00",
"S 	c #631700",
"T 	c #120009",
"U 	c #563218",
"V 	c #452315",
"W 	c #864422",
"X 	c #8F4520",
"Y 	c #702A0E",
"Z 	c #5D1300",
"` 	c #601801",
" .	c #621B03",
"..	c #651E04",
"+.	c #631900",
"@.	c #5E0100",
"#.	c #5C0000",
"$.	c #5F0F00",
"%.	c #611502",
"&.	c #631501",
"*.	c #520F03",
"=.	c #402316",
"-.	c #601502",
";.	c #5F1402",
">.	c #00000C",
",.	c #00070F",
"'.	c #371C13",
").	c #3E1D13",
"!.	c #270C0D",
"~.	c #130009",
"{.	c #140009",
"].	c #230A0B",
"^.	c #35170F",
"/.	c #2C0004",
"(.	c #000008",
"_.	c #000009",
":.	c #00000B",
"<.	c #00090F",
"[.	c #371D14",
"}.	c #552D18",
"|.	c #512B17",
"1.	c #492716",
"2.	c #472716",
"3.	c #4D2B18",
"4.	c #502D19",
"5.	c #522E19",
"6.	c #432415",
"7.	c #303320",
"8.	c #6D6039",
"9.	c #79663A",
"0.	c #6B4F26",
"a.	c #644217",
"b.	c #66451A",
"c.	c #63411B",
"d.	c #593319",
"e.	c #502917",
"f.	c #482616",
"g.	c #644117",
"h.	c #65431A",
"i.	c #66451B",
"j.	c #9B5226",
"k.	c #9A5126",
"l.	c #995126",
"m.	c #9A5226",
"n.	c #9C5327",
"o.	c #9F5527",
"p.	c #87431E",
"q.	c #1F0000",
"r.	c #685F38",
"s.	c #CEB268",
"t.	c #E3BC6A",
"u.	c #CB9244",
"v.	c #BF7A24",
"w.	c #C2802B",
"x.	c #BA782C",
"y.	c #A45E28",
"z.	c #984D25",
"A.	c #995025",
"B.	c #BE7924",
"C.	c #C07D2A",
"D.	c #C17F2E",
"E.	c #A45324",
"F.	c #A65425",
"G.	c #A95625",
"H.	c #8F431C",
"I.	c #756539",
"J.	c #F8C66C",
"K.	c #D69744",
"L.	c #C57921",
"M.	c #C98029",
"N.	c #C1792B",
"O.	c #AC5F26",
"P.	c #A14F24",
"Q.	c #A35224",
"R.	c #C47821",
"S.	c #C77D29",
"T.	c #C8802C",
"U.	c #80330F",
"V.	c #82340F",
"W.	c #84350F",
"X.	c #6E260B",
"Y.	c #000002",
"Z.	c #6B5026",
"`.	c #CD9444",
" +	c #D89844",
".+	c #A66627",
"++	c #863E08",
"@+	c #8C4710",
"#+	c #8C4512",
"$+	c #833910",
"%+	c #7F310E",
"&+	c #863D08",
"*+	c #8C4610",
"=+	c #8E4913",
"-+	c #660000",
";+	c #6E1400",
">+	c #701900",
",+	c #661F04",
"'+	c #631800",
")+	c #621A02",
"!+	c #391A10",
"~+	c #2A0004",
"{+	c #18010A",
"]+	c #19020A",
"^+	c #353420",
"/+	c #6E6139",
"(+	c #4F2C18",
"_+	c #706138",
":+	c #CFB268",
"<+	c #7D673A",
"[+	c #E5BC6A",
"}+	c #705126",
"|+	c #CE9544",
"1+	c #651D03",
"2+	c #661E03",
"3+	c #681E02",
"4+	c #581905",
"5+	c #1A070B",
"6+	c #452517",
"7+	c #884522",
"8+	c #914621",
"9+	c #732C0F",
"0+	c #611700",
"a+	c #641B02",
"b+	c #36140D",
"c+	c #37140D",
"d+	c #38140D",
"e+	c #2F120E",
"f+	c #130E0F",
"g+	c #251712",
"h+	c #482516",
"i+	c #4D2515",
"j+	c #3D1A10",
"k+	c #34120C",
"l+	c #35130D",
"m+	c #000E11",
"n+	c #000F11",
"o+	c #0F1110",
"p+	c #000C0F",
"q+	c #000A10",
"  . + @ # $ % & * = - ; ; > , ' ) ! ~ @ # $ % & * = - ; ; ; ; ; ",
"  { ] ^ / ( _ : < [ } | | 1 2 3 4 5 6 ^ / ( _ : < [ } | | | | | ",
"7 8 9 0 a b c d e f g g g h i j k l m 0 a b c d e f g g g g g g ",
"n o p q r s t u v w x y y z A B C D E q r s t u v w x y y y y y ",
"F G H I J K L M N O P P P Q R S T U H I J K L M N O P P P P P P ",
"F V W X Y Z `  ...+.@.#.$.%.&.*.C =.W X Y Z `  ...+.@.#.$.-.;.;.",
">.,.'.).!.~.{.].^./.      C (._.:.<.[.).!.~.{.].^./.      C _.(.",
"}.|.1.2.3.4.5.6.:.7.8.9.0.a.b.c.d.e.f.2.3.4.5.6.:.7.8.9.0.g.h.i.",
"j.j.k.l.m.n.o.p.q.r.s.t.u.v.w.x.y.z.A.l.m.n.o.p.q.r.s.t.u.B.C.D.",
"E.E.E.E.E.F.G.H.q.I.t.J.K.L.M.N.O.P.Q.E.E.F.G.H.q.I.t.J.K.R.S.T.",
"U.U.U.U.U.V.W.X.Y.Z.`. +.+++@+#+$+%+U.U.U.V.W.X.Y.Z.`. +.+&+*+=+",
"y y y y y z A B C D E q r s t u v w x y y z A B C D E q r s t -+",
"P P P P P Q R S T U H I J K L M N O P P P Q R S T U H I J K ;+>+",
",+'+@.#.$.%.&.*.C =.W X Y Z `  ...+.@.#.$.%.&.*.C =.W X Y Z ` )+",
"!+~+      C (._.:.<.[.).!.~.{.].^./.      C (._.:.<.[.).!.{.{+]+",
"_.^+/+9.0.a.b.c.d.e.f.2.3.4.5.6.:.7.8.9.0.a.b.c.d.e.f.2.3.(+(+(+",
"  _+:+t.u.v.w.x.y.z.A.l.m.n.o.p.q.r.s.t.u.v.w.x.y.z.A.l.m.j.j.m.",
"  <+[+J.K.L.M.N.O.P.Q.E.E.F.G.H.q.I.t.J.K.L.M.N.O.P.Q.E.E.E.E.E.",
"k }+|+ +.+++@+#+$+%+U.U.U.V.W.X.Y.Z.`. +.+++@+#+$+%+U.U.U.U.U.U.",
"n o p q r s t u v w x y y z A B C D E q r s t u v w x y y y y y ",
"F G H I J K L M N O P P P Q R S T U H I J K L M N O P P P P P P ",
"F V W X Y Z `  ...+.@.#.$.%.&.*.C =.W X Y Z `  ...+.@.#.$.-.;.;.",
">.,.'.).!.~.{.].^./.      C (._.:.<.[.).!.~.{.].^./.      C _.(.",
"}.|.1.2.3.4.5.6.:.7.8.9.0.a.b.c.d.e.f.2.3.4.5.6.:.7.8.9.0.g.h.i.",
"j.j.k.l.m.n.o.p.q.r.s.t.u.v.w.x.y.z.A.l.m.n.o.p.q.r.s.t.u.B.C.D.",
"E.E.E.E.E.F.G.H.q.I.t.J.K.L.M.N.O.P.Q.E.E.F.G.H.q.I.t.J.K.R.S.T.",
"U.U.U.U.U.V.W.X.Y.Z.`. +.+++@+#+$+%+U.U.U.V.W.X.Y.Z.`. +.+&+*+=+",
"y y y y y z A B C D E q r s t u v w x y y z A B C D E q r s t -+",
"P P P P P Q R S T U H I J K L M N O P P P Q R S T U H I J K ;+>+",
"1+1+1+1+1+2+3+4+5+6+7+8+9+0+a+1+1+1+1+1+1+2+3+4+5+6+7+8+9+0+a+1+",
"b+b+b+b+b+c+d+e+f+g+h+i+j+k+l+b+b+b+b+b+b+c+d+e+f+g+h+i+j+k+l+b+",
"m+m+m+m+m+m+m+n+o+p+F n q+n+n+m+m+m+m+m+m+m+m+n+o+p+F n q+n+n+m+"};
