/* XPM */
static char * w_b_xpm[] = {
"32 32 180 2",
"  	c #000000",
". 	c #E5C473",
"+ 	c #FBCF75",
"@ 	c #E0A14B",
"# 	c #D28627",
"$ 	c #D68C2F",
"% 	c #CD8430",
"& 	c #B4672B",
"* 	c #A85629",
"= 	c #AA5929",
"- 	c #AB5A2A",
"; 	c #AD5B2A",
"> 	c #B05D2B",
", 	c #964A20",
"' 	c #260000",
") 	c #E4C473",
"! 	c #DEB667",
"~ 	c #F0BF68",
"{ 	c #CF9142",
"] 	c #BE7520",
"^ 	c #C27B28",
"/ 	c #BB7429",
"( 	c #A65B25",
"_ 	c #9C4C23",
": 	c #9E4F23",
"< 	c #9F5023",
"[ 	c #A05123",
"} 	c #A35324",
"| 	c #8A411B",
"1 	c #1D0000",
"2 	c #DCB666",
"3 	c #000004",
"4 	c #CB9242",
"5 	c #D59542",
"6 	c #A36325",
"7 	c #833A07",
"8 	c #89440F",
"9 	c #884211",
"0 	c #81360F",
"a 	c #7D300D",
"b 	c #7E310E",
"c 	c #7F320E",
"d 	c #82330E",
"e 	c #6C250A",
"f 	c #000003",
"g 	c #CA9242",
"h 	c #00000E",
"i 	c #B97122",
"j 	c #BF711F",
"k 	c #853A07",
"l 	c #5A0000",
"m 	c #620000",
"n 	c #670200",
"o 	c #6B1300",
"p 	c #6C1900",
"q 	c #6C1800",
"r 	c #6C1700",
"s 	c #6D1800",
"t 	c #6F1800",
"u 	c #5C0C00",
"v 	c #00000A",
"w 	c #B87122",
"x 	c #00000D",
"y 	c #A75D25",
"z 	c #AF5D23",
"A 	c #85350C",
"B 	c #690500",
"C 	c #6E1300",
"D 	c #701A00",
"E 	c #711D00",
"F 	c #721F00",
"G 	c #721E00",
"H 	c #731E00",
"I 	c #751F00",
"J 	c #631700",
"K 	c #120009",
"L 	c #864422",
"M 	c #8F4520",
"N 	c #702A0E",
"O 	c #5D1300",
"P 	c #601801",
"Q 	c #621B03",
"R 	c #651E04",
"S 	c #631900",
"T 	c #5E0100",
"U 	c #5C0000",
"V 	c #5F0F00",
"W 	c #611502",
"X 	c #631501",
"Y 	c #520F03",
"Z 	c #601502",
"` 	c #5F1402",
" .	c #9B5226",
"..	c #9A5126",
"+.	c #995126",
"@.	c #9A5226",
"#.	c #9C5327",
"$.	c #9F5527",
"%.	c #87431E",
"&.	c #1F0000",
"*.	c #CEB268",
"=.	c #E3BC6A",
"-.	c #CB9244",
";.	c #BF7A24",
">.	c #C2802B",
",.	c #BA782C",
"'.	c #A45E28",
").	c #984D25",
"!.	c #995025",
"~.	c #BE7924",
"{.	c #C07D2A",
"].	c #C17F2E",
"^.	c #A45324",
"/.	c #A65425",
"(.	c #A95625",
"_.	c #8F431C",
":.	c #F8C66C",
"<.	c #D69744",
"[.	c #C57921",
"}.	c #C98029",
"|.	c #C1792B",
"1.	c #AC5F26",
"2.	c #A14F24",
"3.	c #A35224",
"4.	c #C47821",
"5.	c #C77D29",
"6.	c #C8802C",
"7.	c #80330F",
"8.	c #82340F",
"9.	c #84350F",
"0.	c #6E260B",
"a.	c #000002",
"b.	c #CD9444",
"c.	c #D89844",
"d.	c #A66627",
"e.	c #863E08",
"f.	c #8C4710",
"g.	c #8C4512",
"h.	c #833910",
"i.	c #7F310E",
"j.	c #863D08",
"k.	c #8C4610",
"l.	c #8E4913",
"m.	c #660000",
"n.	c #6E1400",
"o.	c #701900",
"p.	c #661F04",
"q.	c #631800",
"r.	c #621A02",
"s.	c #CFB268",
"t.	c #E5BC6A",
"u.	c #CE9544",
"v.	c #621800",
"w.	c #180000",
"x.	c #15130B",
"y.	c #140000",
"z.	c #252012",
"A.	c #000001",
"B.	c #2D2210",
"C.	c #34210C",
"D.	c #060003",
"E.	c #37200F",
"F.	c #651D03",
"G.	c #661E03",
"H.	c #681E02",
"I.	c #581905",
"J.	c #050102",
"K.	c #341C11",
"L.	c #884522",
"M.	c #914621",
"N.	c #732C0F",
"O.	c #611700",
"P.	c #641B02",
"Q.	c #1A070B",
"R.	c #000E11",
"S.	c #000E10",
"T.	c #000B0E",
"U.	c #000A10",
"V.	c #000F11",
"W.	c #0F1110",
"    . + @ # $ % & * = - - ; > , '   ) + @ # $ % & * = - - - - - ",
"    ! ~ { ] ^ / ( _ : < < [ } | 1   2 ~ { ] ^ / ( _ : < < < < < ",
"3   4 5 6 7 8 9 0 a b b b c d e f   g 5 6 7 8 9 0 a b b b b b b ",
"h   i j k l m n o p q r r s t u v   w j k l m n o p q r r r r r ",
"x   y z A B C D E F G G G H I J K   y z A B C D E F G G G G G G ",
"x   L M N O P Q R S T U V W X Y v   L M N O P Q R S T U V Z ` ` ",
"                                                                ",
"                                                                ",
" . ...+.@.#.$.%.&.  *.=.-.;.>.,.'.).!.+.@.#.$.%.&.  *.=.-.~.{.].",
"^.^.^.^.^./.(._.&.  =.:.<.[.}.|.1.2.3.^.^./.(._.&.  =.:.<.4.5.6.",
"7.7.7.7.7.8.9.0.a.  b.c.d.e.f.g.h.i.7.7.7.8.9.0.a.  b.c.d.j.k.l.",
"r r r r r s t u v   w j k l m n o p q r r s t u v   w j k l m m.",
"G G G G G H I J K   y z A B C D E F G G G H I J K   y z A B n.o.",
"p.q.T U V W X Y v   L M N O P Q R S T U V W X Y v   L M N O P r.",
"                                                                ",
"                                                                ",
"    s.=.-.;.>.,.'.).!.+.@.#.$.%.&.  *.=.-.;.>.,.'.).!.+.@. . .@.",
"    t.:.<.[.}.|.1.2.3.^.^./.(._.&.  =.:.<.[.}.|.1.2.3.^.^.^.^.^.",
"f   u.c.d.e.f.g.h.i.7.7.7.8.9.0.a.  b.c.d.e.f.g.h.i.7.7.7.7.7.7.",
"h   i j k l m n o p q r r s t u v   w j k l m n o p q r r r r r ",
"x   y z A B C D E F G G G H I J K   y z A B C D E F G G G G G G ",
"x   L M N O P Q R v.T U V W X Y v   L M N O P Q R S T U V Z ` ` ",
"                                                                ",
"                                                                ",
" . ...+.@.#.$.%.w.x.*.=.-.;.>.,.'.).!.+.@.#.$.%.&.  *.=.-.~.{.].",
"^.^.^.^.^./.(._.y.z.=.:.<.[.}.|.1.2.3.^.^./.(._.&.  =.:.<.4.5.6.",
"7.7.7.7.7.8.9.0.A.B.b.c.d.e.f.g.h.i.7.7.7.8.9.0.a.  b.c.d.j.k.l.",
"r r r r r s t u 3 C.w j k l m n o p q r r s t u v   w j k l m m.",
"G G G G G H I J D.E.y z A B C D E F G G G H I J K   y z A B n.o.",
"F.F.F.F.F.G.H.I.J.K.L.M.N.O.P.F.F.F.F.F.F.G.H.I.Q.  L.M.N.O.P.F.",
"                                                                ",
"R.R.R.R.R.R.R.S.  T.x h U.V.V.R.R.R.R.R.R.R.R.V.W.  x h U.V.V.R."};
