/* XPM */
static char * w_bl_xpm[] = {
"32 32 268 2",
"  	c #000E11",
". 	c #000000",
"+ 	c #651D03",
"@ 	c #721E00",
"# 	c #6C1700",
"$ 	c #80330F",
"% 	c #A45324",
"& 	c #9B5226",
"* 	c #00000D",
"= 	c #00000E",
"- 	c #000003",
"; 	c #CFAA61",
"> 	c #E7B664",
", 	c #D49345",
"' 	c #C97F29",
") 	c #CE832C",
"! 	c #C57C2E",
"~ 	c #974F25",
"{ 	c #984F26",
"] 	c #984F25",
"^ 	c #984F24",
"/ 	c #894721",
"( 	c #D3AD60",
"_ 	c #EAB863",
": 	c #CF9243",
"< 	c #BE7625",
"[ 	c #BE7726",
"} 	c #B77027",
"| 	c #9C4E22",
"1 	c #9D4F22",
"2 	c #8C461E",
"3 	c #9A5126",
"4 	c #864422",
"5 	c #A75D25",
"6 	c #B97122",
"7 	c #CE9544",
"8 	c #E5BC6A",
"9 	c #CFB268",
"0 	c #C28D41",
"a 	c #D09242",
"b 	c #A96929",
"c 	c #8B4610",
"d 	c #8C4811",
"e 	c #8B4513",
"f 	c #803310",
"g 	c #8A411A",
"h 	c #995126",
"i 	c #8F4520",
"j 	c #AF5D23",
"k 	c #BF711F",
"l 	c #D89844",
"m 	c #F8C66C",
"n 	c #E3BC6A",
"o 	c #B16E24",
"p 	c #BA7023",
"q 	c #8C440F",
"r 	c #661802",
"s 	c #681301",
"t 	c #6C1502",
"u 	c #6F1C01",
"v 	c #6F1B01",
"w 	c #7D2E0C",
"x 	c #9A5226",
"y 	c #702A0E",
"z 	c #85350C",
"A 	c #853A07",
"B 	c #A66627",
"C 	c #D69744",
"D 	c #CB9244",
"E 	c #9F5922",
"F 	c #A95A21",
"G 	c #86380E",
"H 	c #6A1101",
"I 	c #6B1200",
"J 	c #6E1800",
"K 	c #701C00",
"L 	c #6F1B00",
"M 	c #701D00",
"N 	c #7B2907",
"O 	c #661E03",
"P 	c #731E00",
"Q 	c #6D1800",
"R 	c #82340F",
"S 	c #A65425",
"T 	c #9C5327",
"U 	c #5D1300",
"V 	c #690500",
"W 	c #5A0000",
"X 	c #863E08",
"Y 	c #C57921",
"Z 	c #BF7A24",
"` 	c #7E401E",
" .	c #88421D",
"..	c #6F2B0E",
"+.	c #5C1501",
"@.	c #5D1601",
"#.	c #5F1902",
"$.	c #5C0800",
"%.	c #5A0600",
"&.	c #5C0F00",
"*.	c #5D1401",
"=.	c #5D1402",
"-.	c #681F05",
";.	c #681E02",
">.	c #751F00",
",.	c #6F1800",
"'.	c #84350F",
").	c #A95625",
"!.	c #9F5527",
"~.	c #601801",
"{.	c #6E1300",
"].	c #620000",
"^.	c #8C4710",
"/.	c #C98029",
"(.	c #C2802B",
"_.	c #000E10",
":.	c #581905",
"<.	c #631700",
"[.	c #5C0C00",
"}.	c #6E260B",
"|.	c #8F431C",
"1.	c #87431E",
"2.	c #621B03",
"3.	c #701A00",
"4.	c #670200",
"5.	c #8C4512",
"6.	c #C1792B",
"7.	c #BA782C",
"8.	c #050102",
"9.	c #060003",
"0.	c #000004",
"a.	c #000001",
"b.	c #140000",
"c.	c #180000",
"d.	c #651E04",
"e.	c #711D00",
"f.	c #6B1300",
"g.	c #833910",
"h.	c #AC5F26",
"i.	c #A45E28",
"j.	c #C0A45E",
"k.	c #D7B062",
"l.	c #C48E43",
"m.	c #B87727",
"n.	c #964F24",
"o.	c #7E3E1B",
"p.	c #B77627",
"q.	c #B7772B",
"r.	c #000B0E",
"s.	c #621800",
"t.	c #721F00",
"u.	c #6C1900",
"v.	c #7F310E",
"w.	c #A14F24",
"x.	c #984D25",
"y.	c #EEBC65",
"z.	c #D39545",
"A.	c #C17925",
"B.	c #A25123",
"C.	c #88401A",
"D.	c #C17825",
"E.	c #C17927",
"F.	c #BF7729",
"G.	c #884522",
"H.	c #B87122",
"I.	c #CD9444",
"J.	c #CEB268",
"K.	c #5E0100",
"L.	c #6C1800",
"M.	c #A35224",
"N.	c #995025",
"O.	c #C58F43",
"P.	c #D49644",
"Q.	c #AC6C2B",
"R.	c #8F4A11",
"S.	c #843611",
"T.	c #6E280C",
"U.	c #8F4911",
"V.	c #904A12",
"W.	c #944E17",
"X.	c #914621",
"Y.	c #5C0000",
"Z.	c #B16E25",
"`.	c #BB7024",
" +	c #8D4410",
".+	c #671902",
"++	c #701C02",
"@+	c #5C1102",
"#+	c #681302",
"$+	c #721C06",
"%+	c #000A10",
"&+	c #732C0F",
"*+	c #5F0F00",
"=+	c #5E1501",
"-+	c #731D04",
";+	c #000F11",
">+	c #611700",
",+	c #611502",
"'+	c #5E1401",
")+	c #5F1401",
"!+	c #4E0E03",
"~+	c #661E05",
"{+	c #641B02",
"]+	c #00000A",
"^+	c #2D1105",
"/+	c #230802",
"(+	c #1C0300",
"_+	c #2B0C04",
":+	c #944E24",
"<+	c #B97828",
"[+	c #B17129",
"}+	c #9E5B26",
"|+	c #934B23",
"1+	c #934C23",
"2+	c #934D23",
"3+	c #944E23",
"4+	c #954E23",
"5+	c #88461F",
"6+	c #A05023",
"7+	c #C27A27",
"8+	c #BB7329",
"9+	c #A95D25",
"0+	c #9E4E23",
"a+	c #9F4F22",
"b+	c #8F471F",
"c+	c #833511",
"d+	c #904B12",
"e+	c #8F4814",
"f+	c #863C12",
"g+	c #823410",
"h+	c #823511",
"i+	c #8B431A",
"j+	c #6F1C02",
"k+	c #701D02",
"l+	c #681402",
"m+	c #6C1602",
"n+	c #6E1A02",
"o+	c #6F1D01",
"p+	c #7D2E0D",
"q+	c #6F1C00",
"r+	c #701E00",
"s+	c #611B03",
"t+	c #601700",
"u+	c #0F1110",
"v+	c #1A070B",
"w+	c #120009",
"x+	c #000002",
"y+	c #C68F43",
"z+	c #5C1101",
"A+	c #711E00",
"B+	c #5F1601",
"C+	c #A05923",
"D+	c #AA5A21",
"E+	c #6B1201",
"F+	c #6C1200",
"G+	c #6C1300",
"H+	c #741D04",
"I+	c #621B02",
"J+	c #631C02",
"K+	c #521603",
"L+	c #81421F",
"M+	c #8A431E",
"N+	c #712C0F",
"O+	c #5F1802",
"P+	c #611B02",
"Q+	c #531604",
"R+	c #80411E",
"S+	c #682006",
"  . + @ # $ % & . . * * = - . . . . ; > , ' ) ! . . ~ { { ] ^ / ",
"  . + @ # $ % & . . . . . . . . . . ( _ : < [ } . . | 1 1 1 1 2 ",
"  . + @ # $ % 3 . . 4 5 6 7 8 9 . . 0 a b c d e . . f f f f f g ",
"  . + @ # $ % h . . i j k l m n . . o p q r s t . . u v v v v w ",
"  . + @ # $ % x . . y z A B C D . . E F G H I J . . K L K M K N ",
"  . O P Q R S T . . U V W X Y Z . . `  ...+.@.#.. . $.%.&.*.=.-.",
"  . ;.>.,.'.).!.. . ~.{.].^./.(.. . . . . . . . . . . . . . . . ",
"_.. :.<.[.}.|.1.. . 2.3.4.5.6.7.. . . . . . . . . . . . . . . . ",
". . 8.9.0.a.b.c.. . d.e.f.g.h.i.. . j.k.l.m.n.o.. . j.k.l.p.m.q.",
"r.. . . . . . . . . s.t.u.v.w.x.. . k.y.z.A.B.C.. . k.y.z.D.E.F.",
"* . G.5 H.I.n J.. . K.@ L.$ M.N.. . O.P.Q.R.S.T.. . O.P.Q.U.V.W.",
"= . X.j k l m n . . Y.@ # $ % h . . Z.`. +.+++@+. . Z.`. +.+#+$+",
"%+. &+z A B C D . . *+@ # $ % x . . K L K e.e.=+. . E F G H I -+",
";+. >+V W X Y Z . . ,+P Q R S T . . $.%.&.'+)+!+. . `  ...+.@.~+",
";+. {+{.].^./.(.. . ]+. . . . . . . . . . . . . . . . ^+/+(+(+_+",
"  . + 3.4.5.6.7.. . . . . . . . . . . . . . . . . . . . . . . . ",
"  . + e.f.g.h.i.. . j.k.:+n.n.o.. . j.k.l.m.<+[+}+|+1+2+3+4+4+5+",
"  . + t.u.v.w.x.. . k.y.6+B.B.C.. . k.y.z.A.7+8+9+0+a+6+6+6+6+b+",
"  . + @ L.$ M.N.. . 4 5 c+S.S.T.. . O.P.Q.R.d+e+f+g+h+h+h+h+h+i+",
"  . + @ # $ % h . . i j j+k+++@+. . Z.`. +.+l+m+n+o+j+j+j+j+j+p+",
"  . + @ # $ % x . . y z K e.e.=+. . E F G H I J q+r+K L K M K N ",
"  . O P Q R S T . . U V &.'+)+!+. . `  ...+.@.#.s+t+$.%.&.*.=.-.",
"  . ;.>.,.'.).!.. . . . . . . . . . . . . . . . . . . . . . . . ",
";+. :.<.[.}.|.1.. . . . . . . . . . . . . . . . . . . . . . . . ",
"u+. v+w+]+x+. . . . j.k.l.m.<+[+}+|+1+2+:+n.n.o.. . j.k.l.p.m.q.",
". . . . . . . . . . k.y.z.A.7+8+9+0+a+6+6+B.B.C.. . k.y.z.D.E.F.",
"* . G.5 H.I.S.T.. . y+P.Q.R.d+e+f+g+h+h+c+S.S.T.. . O.P.Q.U.V.W.",
"= . X.j k l ++z+. . Z.`. +.+l+m+n+o+j+j+j+k+++@+. . Z.`. +.+#+$+",
"%+. &+z M A+e.B+. . C+D+G E+F+J q+r+M M M A+e.B+. . E D+G E+G+H+",
";+. >+V I+J+J+K+. . L+M+N+O+~.P+P+P+P+P+I+J+J+Q+. . R+M+N+O+~.S+",
". . . . . . . . . . . . . . . . . . . . . . . . . . . . . . . . ",
". . . . . . . . . . . . . . . . . . . . . . . . . . . . . . . . "};
