/* XPM */
static char * w_br_xpm[] = {
"32 32 268 2",
"  	c #894721",
". 	c #8C461E",
"+ 	c #8A411A",
"@ 	c #7D2E0C",
"# 	c #7B2907",
"$ 	c #681F05",
"% 	c #000000",
"& 	c #B7772B",
"* 	c #BF7729",
"= 	c #944E17",
"- 	c #721C06",
"; 	c #731D04",
"> 	c #661E05",
", 	c #2B0C04",
"' 	c #88461F",
") 	c #8F471F",
"! 	c #8B431A",
"~ 	c #7D2E0D",
"{ 	c #741D04",
"] 	c #682006",
"^ 	c #984F24",
"/ 	c #9D4F22",
"( 	c #803310",
"_ 	c #6F1B01",
": 	c #701C00",
"< 	c #5D1402",
"[ 	c #B87727",
"} 	c #C17927",
"| 	c #904A12",
"1 	c #681302",
"2 	c #6B1200",
"3 	c #5D1601",
"4 	c #1C0300",
"5 	c #954E23",
"6 	c #A05023",
"7 	c #823511",
"8 	c #6F1C02",
"9 	c #6C1300",
"0 	c #601801",
"a 	c #984F25",
"b 	c #701D00",
"c 	c #5D1401",
"d 	c #B77627",
"e 	c #C17825",
"f 	c #8F4911",
"g 	c #671902",
"h 	c #6A1101",
"i 	c #5C1501",
"j 	c #6B1201",
"k 	c #5F1802",
"l 	c #984F26",
"m 	c #5C0F00",
"n 	c #C48E43",
"o 	c #D39545",
"p 	c #AC6C2B",
"q 	c #8D4410",
"r 	c #86380E",
"s 	c #6F2B0E",
"t 	c #230802",
"u 	c #944E23",
"v 	c #712C0F",
"w 	c #6F1B00",
"x 	c #5A0600",
"y 	c #D7B062",
"z 	c #EEBC65",
"A 	c #D49644",
"B 	c #BB7024",
"C 	c #A95A21",
"D 	c #88421D",
"E 	c #2D1105",
"F 	c #934D23",
"G 	c #AA5A21",
"H 	c #8A431E",
"I 	c #974F25",
"J 	c #9C4E22",
"K 	c #6F1C01",
"L 	c #5C0800",
"M 	c #C0A45E",
"N 	c #C58F43",
"O 	c #B16E25",
"P 	c #9F5922",
"Q 	c #7E401E",
"R 	c #934C23",
"S 	c #9F4F22",
"T 	c #80411E",
"U 	c #934B23",
"V 	c #9E4E23",
"W 	c #823410",
"X 	c #6F1D01",
"Y 	c #701E00",
"Z 	c #601700",
"` 	c #9E5B26",
" .	c #A95D25",
"..	c #863C12",
"+.	c #6E1A02",
"@.	c #6F1C00",
"#.	c #611B03",
"$.	c #C57C2E",
"%.	c #B77027",
"&.	c #8B4513",
"*.	c #6C1502",
"=.	c #6E1800",
"-.	c #5F1902",
";.	c #7E3E1B",
">.	c #88401A",
",.	c #6E280C",
"'.	c #5C1102",
").	c #5E1501",
"!.	c #4E0E03",
"~.	c #B17129",
"{.	c #BB7329",
"].	c #8F4814",
"^.	c #6C1602",
"/.	c #5F1601",
"(.	c #531604",
"_.	c #CE832C",
":.	c #BE7726",
"<.	c #8C4811",
"[.	c #681301",
"}.	c #964F24",
"|.	c #A25123",
"1.	c #843611",
"2.	c #701C02",
"3.	c #711D00",
"4.	c #5F1401",
"5.	c #B97828",
"6.	c #C27A27",
"7.	c #904B12",
"8.	c #681402",
"9.	c #631C02",
"0.	c #C97F29",
"a.	c #BE7625",
"b.	c #8B4610",
"c.	c #661802",
"d.	c #C17925",
"e.	c #8F4A11",
"f.	c #5E1401",
"g.	c #701D02",
"h.	c #711E00",
"i.	c #D49345",
"j.	c #CF9243",
"k.	c #A96929",
"l.	c #8C440F",
"m.	c #944E24",
"n.	c #833511",
"o.	c #621B02",
"p.	c #E7B664",
"q.	c #EAB863",
"r.	c #D09242",
"s.	c #BA7023",
"t.	c #611B02",
"u.	c #CFAA61",
"v.	c #D3AD60",
"w.	c #C28D41",
"x.	c #B16E24",
"y.	c #CFB268",
"z.	c #E3BC6A",
"A.	c #CB9244",
"B.	c #BF7A24",
"C.	c #C2802B",
"D.	c #BA782C",
"E.	c #A45E28",
"F.	c #984D25",
"G.	c #995025",
"H.	c #995126",
"I.	c #9A5226",
"J.	c #9C5327",
"K.	c #E5BC6A",
"L.	c #F8C66C",
"M.	c #D69744",
"N.	c #C57921",
"O.	c #C98029",
"P.	c #C1792B",
"Q.	c #AC5F26",
"R.	c #A14F24",
"S.	c #A35224",
"T.	c #A45324",
"U.	c #A65425",
"V.	c #6C1200",
"W.	c #000003",
"X.	c #CE9544",
"Y.	c #D89844",
"Z.	c #A66627",
"`.	c #863E08",
" +	c #8C4710",
".+	c #8C4512",
"++	c #833910",
"@+	c #7F310E",
"#+	c #80330F",
"$+	c #82340F",
"%+	c #00000E",
"&+	c #B97122",
"*+	c #BF711F",
"=+	c #853A07",
"-+	c #5A0000",
";+	c #620000",
">+	c #670200",
",+	c #6B1300",
"'+	c #6C1900",
")+	c #6C1800",
"!+	c #6C1700",
"~+	c #6D1800",
"{+	c #00000D",
"]+	c #A75D25",
"^+	c #AF5D23",
"/+	c #85350C",
"(+	c #690500",
"_+	c #6E1300",
":+	c #701A00",
"<+	c #721F00",
"[+	c #721E00",
"}+	c #731E00",
"|+	c #864422",
"1+	c #8F4520",
"2+	c #702A0E",
"3+	c #5D1300",
"4+	c #621B03",
"5+	c #651E04",
"6+	c #621800",
"7+	c #5E0100",
"8+	c #5C0000",
"9+	c #5F0F00",
"0+	c #611502",
"a+	c #00000A",
"b+	c #C68F43",
"c+	c #A05923",
"d+	c #81421F",
"e+	c #9B5226",
"f+	c #9A5126",
"g+	c #9F5527",
"h+	c #87431E",
"i+	c #180000",
"j+	c #CEB268",
"k+	c #5C1101",
"l+	c #521603",
"m+	c #A95625",
"n+	c #8F431C",
"o+	c #140000",
"p+	c #84350F",
"q+	c #6E260B",
"r+	c #000001",
"s+	c #CD9444",
"t+	c #000002",
"u+	c #6F1800",
"v+	c #5C0C00",
"w+	c #000004",
"x+	c #B87122",
"y+	c #751F00",
"z+	c #631700",
"A+	c #060003",
"B+	c #120009",
"C+	c #651D03",
"D+	c #661E03",
"E+	c #681E02",
"F+	c #581905",
"G+	c #050102",
"H+	c #884522",
"I+	c #914621",
"J+	c #732C0F",
"K+	c #611700",
"L+	c #641B02",
"M+	c #1A070B",
"N+	c #000E11",
"O+	c #000E10",
"P+	c #000B0E",
"Q+	c #000A10",
"R+	c #000F11",
"S+	c #0F1110",
"  . + @ # $ % % & * = - ; > , % ' ) ! ~ # $ % % & * = - { ] % % ",
"^ / ( _ : < % % [ } | 1 2 3 4 % 5 6 7 8 : < % % [ } | 1 9 0 % % ",
"a / ( _ b c % % d e f g h i 4 % 5 6 7 8 b c % % d e f g j k % % ",
"l / ( _ : m % % n o p q r s t % u 6 7 8 : m % % n o p q r v % % ",
"l / ( _ w x % % y z A B C D E % F 6 7 8 w x % % y z A B G H % % ",
"I J ( K : L % % M y N O P Q % % R S 7 8 : L % % M y N O P T % % ",
"% % % % % % % % % % % % % % % % U V W X Y Z % % % % % % % % % % ",
"% % % % % % % % % % % % % % % % `  ...+.@.#.% % % % % % % % % % ",
"$.%.&.*.=.-.% % ;.>.,.'.).!.% % ~.{.].^.=.-.% % ;.>.,.'./.(.% % ",
"_.:.<.[.2 3 % % }.|.1.2.3.4.% % 5.6.7.8.2 3 % % }.|.1.2.3.9.% % ",
"0.a.b.c.h i % % [ d.e.g 3.f.% % [ d.e.g h i % % }.|.1.g.h.9.% % ",
"i.j.k.l.r s % % n o p q : m % % n o p q r s % % m.6 n.8 b o.% % ",
"p.q.r.s.C D % % y z A B w x % % y z A B C D % % F 6 7 8 b t.% % ",
"u.v.w.x.P Q % % M y N O : L % % M y N O P Q % % R S 7 8 b t.% % ",
"% % % % % % % % % % % % % % % % % % % % % % % % U V W X Y t.% % ",
"% % % % % % % % % % % % % % % % % % % % % % % % `  ...+.@.t.% % ",
"% % y.z.A.B.C.D.E.F.G.H.I.J.% % ;.>.,.'.).!.% % ~.{.].^.=.t.% % ",
"% % K.L.M.N.O.P.Q.R.S.T.T.U.% % }.|.1.2.3.4.% % 5.6.7.8.V.0 % % ",
"W.% X.Y.Z.`. +.+++@+#+#+#+$+% % }.|.1.g.3.f.% % [ d.e.g j k % % ",
"%+% &+*+=+-+;+>+,+'+)+!+!+~+% % m.6 n.8 : m % % n o p q r v % % ",
"{+% ]+^+/+(+_+:+3.<+[+[+[+}+% % y z ]+^+/+(+% % y z A B G H % % ",
"{+% |+1+2+3+0 4+5+6+7+8+9+0+a+% M y |+1+2+3+% % M y b+O c+d+% % ",
"% % % % % % % % % % % % % % % % % % % % % % % % % % % % % % % % ",
"% % % % % % % % % % % % % % % % % % % % % % % % % % % % % % % % ",
"e+e+f+H.I.J.g+h+i+% j+z.A.B.C.D.E.F.G.H.I.J.g+h+% % ,.k+/.l+% % ",
"T.T.T.T.T.U.m+n+o+% z.L.M.N.O.P.Q.R.S.T.T.U.m+n+% % 1.2.3.9.% % ",
"#+#+#+#+#+$+p+q+r+% s+Y.Z.`. +.+++@+#+#+#+$+p+q+t+% s+Y.h.9.% % ",
"!+!+!+!+!+~+u+v+w+% x+*+=+-+;+>+,+'+)+!+!+~+u+v+a+% x+*+b o.% % ",
"[+[+[+[+[+}+y+z+A+% ]+^+/+(+_+:+3.<+[+[+[+}+y+z+B+% ]+^+/+(+% % ",
"C+C+C+C+C+D+E+F+G+% H+I+J+K+L+C+C+C+C+C+C+D+E+F+M+% H+I+J+K+% % ",
"% % % % % % % % % % % % % % % % % % % % % % % % % % % % % % % % ",
"N+N+N+N+N+N+N+O+% P+{+%+Q+R+R+N+N+N+N+N+N+N+N+R+S+% {+%+Q+R+% % "};
