/* XPM */
static char * w_l_xpm[] = {
"32 32 180 2",
"  	c #000E11",
". 	c #000000",
"+ 	c #651D03",
"@ 	c #721E00",
"# 	c #6C1700",
"$ 	c #80330F",
"% 	c #A45324",
"& 	c #9B5226",
"* 	c #00000D",
"= 	c #00000E",
"- 	c #000003",
"; 	c #661F04",
"> 	c #000004",
", 	c #631800",
"' 	c #9A5126",
") 	c #864422",
"! 	c #A75D25",
"~ 	c #B97122",
"{ 	c #CE9544",
"] 	c #E5BC6A",
"^ 	c #CFB268",
"/ 	c #5E0100",
"( 	c #CB9242",
"_ 	c #DEB667",
": 	c #E5C473",
"< 	c #995126",
"[ 	c #8F4520",
"} 	c #AF5D23",
"| 	c #BF711F",
"1 	c #D89844",
"2 	c #F8C66C",
"3 	c #E3BC6A",
"4 	c #5C0000",
"5 	c #D59542",
"6 	c #F0BF68",
"7 	c #FBCF75",
"8 	c #9A5226",
"9 	c #702A0E",
"0 	c #85350C",
"a 	c #853A07",
"b 	c #A66627",
"c 	c #D69744",
"d 	c #CB9244",
"e 	c #5F0F00",
"f 	c #A36325",
"g 	c #CF9142",
"h 	c #E0A14B",
"i 	c #661E03",
"j 	c #731E00",
"k 	c #6D1800",
"l 	c #82340F",
"m 	c #A65425",
"n 	c #9C5327",
"o 	c #5D1300",
"p 	c #690500",
"q 	c #5A0000",
"r 	c #863E08",
"s 	c #C57921",
"t 	c #BF7A24",
"u 	c #611502",
"v 	c #833A07",
"w 	c #BE7520",
"x 	c #D28627",
"y 	c #681E02",
"z 	c #751F00",
"A 	c #6F1800",
"B 	c #84350F",
"C 	c #A95625",
"D 	c #9F5527",
"E 	c #601801",
"F 	c #6E1300",
"G 	c #620000",
"H 	c #8C4710",
"I 	c #C98029",
"J 	c #C2802B",
"K 	c #631501",
"L 	c #89440F",
"M 	c #C27B28",
"N 	c #D68C2F",
"O 	c #000E10",
"P 	c #581905",
"Q 	c #631700",
"R 	c #5C0C00",
"S 	c #6E260B",
"T 	c #8F431C",
"U 	c #87431E",
"V 	c #621B03",
"W 	c #701A00",
"X 	c #670200",
"Y 	c #8C4512",
"Z 	c #C1792B",
"` 	c #BA782C",
" .	c #520F03",
"..	c #884211",
"+.	c #BB7429",
"@.	c #CD8430",
"#.	c #050102",
"$.	c #060003",
"%.	c #000001",
"&.	c #140000",
"*.	c #180000",
"=.	c #651E04",
"-.	c #711D00",
";.	c #6B1300",
">.	c #833910",
",.	c #AC5F26",
"'.	c #A45E28",
").	c #00000A",
"!.	c #120009",
"~.	c #000002",
"{.	c #1F0000",
"].	c #81360F",
"^.	c #A65B25",
"/.	c #B4672B",
"(.	c #000B0E",
"_.	c #341C11",
":.	c #37200F",
"<.	c #34210C",
"[.	c #2D2210",
"}.	c #252012",
"|.	c #15130B",
"1.	c #621800",
"2.	c #721F00",
"3.	c #6C1900",
"4.	c #7F310E",
"5.	c #A14F24",
"6.	c #984D25",
"7.	c #631900",
"8.	c #7D300D",
"9.	c #9C4C23",
"0.	c #A85629",
"a.	c #884522",
"b.	c #B87122",
"c.	c #CD9444",
"d.	c #CEB268",
"e.	c #6C1800",
"f.	c #A35224",
"g.	c #995025",
"h.	c #7E310E",
"i.	c #9E4F23",
"j.	c #AA5929",
"k.	c #914621",
"l.	c #9F5023",
"m.	c #AB5A2A",
"n.	c #000A10",
"o.	c #732C0F",
"p.	c #000F11",
"q.	c #611700",
"r.	c #7F320E",
"s.	c #A05123",
"t.	c #AD5B2A",
"u.	c #641B02",
"v.	c #82330E",
"w.	c #A35324",
"x.	c #B05D2B",
"y.	c #6C250A",
"z.	c #8A411B",
"A.	c #964A20",
"B.	c #1D0000",
"C.	c #260000",
"D.	c #CA9242",
"E.	c #DCB666",
"F.	c #E4C473",
"G.	c #0F1110",
"H.	c #1A070B",
"I.	c #863D08",
"J.	c #C47821",
"K.	c #BE7924",
"L.	c #601502",
"M.	c #6E1400",
"N.	c #8C4610",
"O.	c #C77D29",
"P.	c #C07D2A",
"Q.	c #5F1402",
"R.	c #701900",
"S.	c #660000",
"T.	c #8E4913",
"U.	c #C8802C",
"V.	c #C17F2E",
"W.	c #621A02",
"  . + @ # $ % & . . * * = - . . . . ; @ # $ % & . . * * = > . . ",
"  . + @ # $ % & . . . . . . . . . . , @ # $ % & . . . . . . . . ",
"  . + @ # $ % ' . . ) ! ~ { ] ^ . . / @ # $ % ' . . ) ! ~ ( _ : ",
"  . + @ # $ % < . . [ } | 1 2 3 . . 4 @ # $ % < . . [ } | 5 6 7 ",
"  . + @ # $ % 8 . . 9 0 a b c d . . e @ # $ % 8 . . 9 0 a f g h ",
"  . i j k l m n . . o p q r s t . . u j k l m n . . o p q v w x ",
"  . y z A B C D . . E F G H I J . . K z A B C D . . E F G L M N ",
"O . P Q R S T U . . V W X Y Z ` . .  .Q R S T U . . V W X ..+.@.",
". . #.$.> %.&.*.. . =.-.;.>.,.'.. . ).!.).~.{.{.. . =.-.;.].^./.",
"(.. _.:.<.[.}.|.. . 1.2.3.4.5.6.. . . . . . . . . . 7.2.3.8.9.0.",
"* . a.! b.c.3 d.. . / @ e.$ f.g.. . ) ! b.c.3 d.. . / @ e.h.i.j.",
"= . k.} | 1 2 3 . . 4 @ # $ % < . . [ } | 1 2 3 . . 4 @ # h.l.m.",
"n.. o.0 a b c d . . e @ # $ % 8 . . 9 0 a b c d . . e @ # h.l.m.",
"p.. q.p q r s t . . u j k l m n . . o p q r s t . . u j k r.s.t.",
"p.. u.F G H I J . . K z A B C D . . E F G H I J . . K z A v.w.x.",
"  . + W X Y Z ` . .  .Q R S T U . . V W X Y Z ` . .  .Q R y.z.A.",
"  . + -.;.>.,.'.. . ).!.).~.{.{.. . =.-.;.>.,.'.. . ).!.).- B.C.",
"  . + 2.3.4.5.6.. . . . . . . . . . 7.2.3.4.5.6.. . . . . . . . ",
"  . + @ e.$ f.g.. . ) ! b.c.3 d.. . / @ e.$ f.g.. . ) ! b.D.E.F.",
"  . + @ # $ % < . . [ } | 1 2 3 . . 4 @ # $ % < . . [ } | 5 6 7 ",
"  . + @ # $ % 8 . . 9 0 a b c d . . e @ # $ % 8 . . 9 0 a f g h ",
"  . i j k l m n . . o p q r s t . . u j k l m n . . o p q v w x ",
"  . y z A B C D . . E F G H I J . . K z A B C D . . E F G L M N ",
"p.. P Q R S T U . . V W X Y Z ` . .  .Q R S T U . . V W X ..+.@.",
"G.. H.!.).~.{.{.. . =.-.;.>.,.'.. . ).!.).~.{.{.. . =.-.;.].^./.",
". . . . . . . . . . 7.2.3.4.5.6.. . . . . . . . . . 7.2.3.8.9.0.",
"* . a.! b.c.3 d.. . / @ e.$ f.g.. . ) ! b.c.3 d.. . / @ e.h.i.j.",
"= . k.} | 1 2 3 . . 4 @ # $ % < . . [ } | 1 2 3 . . 4 @ # h.l.m.",
"n.. o.0 a b c d . . e @ # $ % 8 . . 9 0 a b c d . . e @ # h.l.m.",
"p.. q.p q I.J.K.. . L.@ # $ % & . . o p q I.J.K.. . L.@ # h.l.m.",
"p.. u.M.G N.O.P.. . Q.@ # $ % & . . E M.G N.O.P.. . Q.@ # h.l.m.",
"  . + R.S.T.U.V.. . Q.@ # $ % 8 . . W.R.S.T.U.V.. . Q.@ # h.l.m."};
