/* XPM */
static char * w_r_xpm[] = {
"32 32 180 2",
"  	c #AB5A2A",
". 	c #9F5023",
"+ 	c #7E310E",
"@ 	c #6C1700",
"# 	c #721E00",
"$ 	c #5F1402",
"% 	c #000000",
"& 	c #C17F2E",
"* 	c #C8802C",
"= 	c #8E4913",
"- 	c #660000",
"; 	c #701900",
"> 	c #621A02",
", 	c #9A5226",
"' 	c #A45324",
") 	c #80330F",
"! 	c #651D03",
"~ 	c #000E11",
"{ 	c #C07D2A",
"] 	c #C77D29",
"^ 	c #8C4610",
"/ 	c #620000",
"( 	c #6E1400",
"_ 	c #601801",
": 	c #9B5226",
"< 	c #641B02",
"[ 	c #000F11",
"} 	c #601502",
"| 	c #BE7924",
"1 	c #C47821",
"2 	c #863D08",
"3 	c #5A0000",
"4 	c #690500",
"5 	c #5D1300",
"6 	c #611700",
"7 	c #5F0F00",
"8 	c #CB9244",
"9 	c #D69744",
"0 	c #A66627",
"a 	c #853A07",
"b 	c #85350C",
"c 	c #702A0E",
"d 	c #732C0F",
"e 	c #000A10",
"f 	c #5C0000",
"g 	c #E3BC6A",
"h 	c #F8C66C",
"i 	c #D89844",
"j 	c #BF711F",
"k 	c #AF5D23",
"l 	c #8F4520",
"m 	c #995126",
"n 	c #914621",
"o 	c #00000E",
"p 	c #AA5929",
"q 	c #9E4F23",
"r 	c #6C1800",
"s 	c #5E0100",
"t 	c #CEB268",
"u 	c #CD9444",
"v 	c #B87122",
"w 	c #A75D25",
"x 	c #864422",
"y 	c #995025",
"z 	c #A35224",
"A 	c #884522",
"B 	c #00000D",
"C 	c #A85629",
"D 	c #9C4C23",
"E 	c #7D300D",
"F 	c #6C1900",
"G 	c #721F00",
"H 	c #631900",
"I 	c #984D25",
"J 	c #A14F24",
"K 	c #7F310E",
"L 	c #B4672B",
"M 	c #A65B25",
"N 	c #81360F",
"O 	c #6B1300",
"P 	c #711D00",
"Q 	c #651E04",
"R 	c #1F0000",
"S 	c #000002",
"T 	c #00000A",
"U 	c #120009",
"V 	c #A45E28",
"W 	c #AC5F26",
"X 	c #833910",
"Y 	c #1A070B",
"Z 	c #0F1110",
"` 	c #CD8430",
" .	c #BB7429",
"..	c #884211",
"+.	c #670200",
"@.	c #701A00",
"#.	c #621B03",
"$.	c #87431E",
"%.	c #8F431C",
"&.	c #6E260B",
"*.	c #5C0C00",
"=.	c #631700",
"-.	c #520F03",
";.	c #BA782C",
">.	c #C1792B",
",.	c #8C4512",
"'.	c #581905",
").	c #D68C2F",
"!.	c #C27B28",
"~.	c #89440F",
"{.	c #6E1300",
"].	c #9F5527",
"^.	c #A95625",
"/.	c #84350F",
"(.	c #6F1800",
"_.	c #751F00",
":.	c #631501",
"<.	c #C2802B",
"[.	c #C98029",
"}.	c #8C4710",
"|.	c #681E02",
"1.	c #D28627",
"2.	c #BE7520",
"3.	c #833A07",
"4.	c #9C5327",
"5.	c #A65425",
"6.	c #82340F",
"7.	c #6D1800",
"8.	c #731E00",
"9.	c #611502",
"0.	c #BF7A24",
"a.	c #C57921",
"b.	c #863E08",
"c.	c #661E03",
"d.	c #E0A14B",
"e.	c #CF9142",
"f.	c #A36325",
"g.	c #FBCF75",
"h.	c #F0BF68",
"i.	c #D59542",
"j.	c #E4C473",
"k.	c #DCB666",
"l.	c #CA9242",
"m.	c #260000",
"n.	c #1D0000",
"o.	c #000003",
"p.	c #964A20",
"q.	c #8A411B",
"r.	c #6C250A",
"s.	c #B05D2B",
"t.	c #A35324",
"u.	c #82330E",
"v.	c #AD5B2A",
"w.	c #A05123",
"x.	c #7F320E",
"y.	c #621800",
"z.	c #15130B",
"A.	c #252012",
"B.	c #2D2210",
"C.	c #34210C",
"D.	c #37200F",
"E.	c #341C11",
"F.	c #000B0E",
"G.	c #180000",
"H.	c #140000",
"I.	c #000001",
"J.	c #000004",
"K.	c #060003",
"L.	c #050102",
"M.	c #000E10",
"N.	c #E5C473",
"O.	c #DEB667",
"P.	c #CB9242",
"Q.	c #B97122",
"R.	c #9A5126",
"S.	c #CFB268",
"T.	c #E5BC6A",
"U.	c #CE9544",
"V.	c #631800",
"W.	c #661F04",
"  . + @ # $ % % & * = - ; > % % , ' ) @ # $ % % & * = - ; ! % ~ ",
"  . + @ # $ % % { ] ^ / ( _ % % : ' ) @ # $ % % { ] ^ / ( < % [ ",
"  . + @ # } % % | 1 2 3 4 5 % % : ' ) @ # } % % | 1 2 3 4 6 % [ ",
"  . + @ # 7 % % 8 9 0 a b c % % , ' ) @ # 7 % % 8 9 0 a b d % e ",
"  . + @ # f % % g h i j k l % % m ' ) @ # f % % g h i j k n % o ",
"p q + r # s % % t g u v w x % % y z ) r # s % % t g u v w A % B ",
"C D E F G H % % % % % % % % % % I J K F G H % % % % % % % % % % ",
"L M N O P Q % % R R S T U T % % V W X O P Q % % R R S T U Y % Z ",
"`  ...+.@.#.% % $.%.&.*.=.-.% % ;.>.,.+.@.#.% % $.%.&.*.=.'.% [ ",
").!.~./ {._ % % ].^./.(._.:.% % <.[.}./ {._ % % ].^./.(._.|.% ~ ",
"1.2.3.3 4 5 % % 4.5.6.7.8.9.% % 0.a.b.3 4 5 % % 4.5.6.7.8.c.% ~ ",
"d.e.f.a b c % % , ' ) @ # 7 % % 8 9 0 a b c % % , ' ) @ # ! % ~ ",
"g.h.i.j k l % % m ' ) @ # f % % g h i j k l % % m ' ) @ # ! % ~ ",
"j.k.l.v w x % % y z ) r # s % % t g u v w x % % y z ) r # ! % ~ ",
"% % % % % % % % I J K F G H % % % % % % % % % % I J K F G ! % ~ ",
"m.n.o.T U T % % V W X O P Q % % R R S T U T % % V W X O P ! % ~ ",
"p.q.r.*.=.-.% % ;.>.,.+.@.#.% % $.%.&.*.=.-.% % ;.>.,.+.@.! % ~ ",
"s.t.u.(._.:.% % <.[.}./ {._ % % ].^./.(._.:.% % <.[.}./ {.< % [ ",
"v.w.x.7.8.9.% % 0.a.b.3 4 5 % % 4.5.6.7.8.9.% % 0.a.b.3 4 6 % [ ",
"  . + @ # 7 % % 8 9 0 a b c % % , ' ) @ # 7 % % 8 9 0 a b d % e ",
"  . + @ # f % % g h i j k l % % m ' ) @ # f % % g h i j k n % o ",
"p q + r # s % % t g u v w x % % y z ) r # s % % t g u v w A % B ",
"C D E F G H % % % % % % % % % % I J K F G y.% % z.A.B.C.D.E.% F.",
"L M N O P Q % % R R S T U T % % V W X O P Q % % G.H.I.J.K.L.% % ",
"`  ...+.@.#.% % $.%.&.*.=.-.% % ;.>.,.+.@.#.% % $.%.&.*.=.'.% M.",
").!.~./ {._ % % ].^./.(._.:.% % <.[.}./ {._ % % ].^./.(._.|.% ~ ",
"1.2.3.3 4 5 % % 4.5.6.7.8.9.% % 0.a.b.3 4 5 % % 4.5.6.7.8.c.% ~ ",
"d.e.f.a b c % % , ' ) @ # 7 % % 8 9 0 a b c % % , ' ) @ # ! % ~ ",
"g.h.i.j k l % % m ' ) @ # f % % g h i j k l % % m ' ) @ # ! % ~ ",
"N.O.P.Q.w x % % R.' ) @ # s % % S.T.U.Q.w x % % R.' ) @ # ! % ~ ",
"% % % % % % % % : ' ) @ # V.% % % % % % % % % % : ' ) @ # ! % ~ ",
"% % J.o B B % % : ' ) @ # W.% % % % o.o B B % % : ' ) @ # ! % ~ "};
