/* XPM */
static char * w_t_xpm[] = {
"32 32 180 2",
"  	c #000E11",
". 	c #000F11",
"+ 	c #000A10",
"@ 	c #00000E",
"# 	c #00000D",
"$ 	c #000000",
"% 	c #0F1110",
"& 	c #000B0E",
"* 	c #000E10",
"= 	c #651D03",
"- 	c #641B02",
"; 	c #611700",
"> 	c #732C0F",
", 	c #914621",
"' 	c #884522",
") 	c #1A070B",
"! 	c #581905",
"~ 	c #681E02",
"{ 	c #661E03",
"] 	c #341C11",
"^ 	c #050102",
"/ 	c #701900",
"( 	c #6E1400",
"_ 	c #690500",
": 	c #85350C",
"< 	c #AF5D23",
"[ 	c #A75D25",
"} 	c #120009",
"| 	c #631700",
"1 	c #751F00",
"2 	c #731E00",
"3 	c #721E00",
"4 	c #721F00",
"5 	c #711D00",
"6 	c #701A00",
"7 	c #6E1300",
"8 	c #37200F",
"9 	c #060003",
"0 	c #660000",
"a 	c #620000",
"b 	c #5A0000",
"c 	c #853A07",
"d 	c #BF711F",
"e 	c #B87122",
"f 	c #00000A",
"g 	c #5C0C00",
"h 	c #6F1800",
"i 	c #6D1800",
"j 	c #6C1700",
"k 	c #6C1800",
"l 	c #6C1900",
"m 	c #6B1300",
"n 	c #670200",
"o 	c #34210C",
"p 	c #000004",
"q 	c #8E4913",
"r 	c #8C4610",
"s 	c #863D08",
"t 	c #A66627",
"u 	c #D89844",
"v 	c #CD9444",
"w 	c #000002",
"x 	c #6E260B",
"y 	c #84350F",
"z 	c #82340F",
"A 	c #80330F",
"B 	c #7F310E",
"C 	c #833910",
"D 	c #8C4512",
"E 	c #8C4710",
"F 	c #863E08",
"G 	c #2D2210",
"H 	c #000001",
"I 	c #C8802C",
"J 	c #C77D29",
"K 	c #C47821",
"L 	c #D69744",
"M 	c #F8C66C",
"N 	c #E3BC6A",
"O 	c #1F0000",
"P 	c #8F431C",
"Q 	c #A95625",
"R 	c #A65425",
"S 	c #A45324",
"T 	c #A35224",
"U 	c #A14F24",
"V 	c #AC5F26",
"W 	c #C1792B",
"X 	c #C98029",
"Y 	c #C57921",
"Z 	c #252012",
"` 	c #140000",
" .	c #C17F2E",
"..	c #C07D2A",
"+.	c #BE7924",
"@.	c #CB9244",
"#.	c #CEB268",
"$.	c #87431E",
"%.	c #9F5527",
"&.	c #9C5327",
"*.	c #9A5226",
"=.	c #995126",
"-.	c #995025",
";.	c #984D25",
">.	c #A45E28",
",.	c #BA782C",
"'.	c #C2802B",
").	c #BF7A24",
"!.	c #15130B",
"~.	c #180000",
"{.	c #9A5126",
"].	c #9B5226",
"^.	c #5F1402",
"/.	c #601502",
"(.	c #5F0F00",
"_.	c #5C0000",
":.	c #5E0100",
"<.	c #631900",
"[.	c #651E04",
"}.	c #621B03",
"|.	c #601801",
"1.	c #5D1300",
"2.	c #702A0E",
"3.	c #8F4520",
"4.	c #864422",
"5.	c #520F03",
"6.	c #631501",
"7.	c #611502",
"8.	c #621800",
"9.	c #B97122",
"0.	c #CE9544",
"a.	c #000003",
"b.	c #E5BC6A",
"c.	c #CFB268",
"d.	c #621A02",
"e.	c #631800",
"f.	c #661F04",
"g.	c #7E310E",
"h.	c #7D300D",
"i.	c #81360F",
"j.	c #884211",
"k.	c #89440F",
"l.	c #833A07",
"m.	c #A36325",
"n.	c #D59542",
"o.	c #CA9242",
"p.	c #6C250A",
"q.	c #82330E",
"r.	c #7F320E",
"s.	c #CB9242",
"t.	c #9F5023",
"u.	c #9E4F23",
"v.	c #9C4C23",
"w.	c #A65B25",
"x.	c #BB7429",
"y.	c #C27B28",
"z.	c #BE7520",
"A.	c #CF9142",
"B.	c #F0BF68",
"C.	c #DCB666",
"D.	c #1D0000",
"E.	c #8A411B",
"F.	c #A35324",
"G.	c #A05123",
"H.	c #DEB667",
"I.	c #AB5A2A",
"J.	c #AA5929",
"K.	c #A85629",
"L.	c #B4672B",
"M.	c #CD8430",
"N.	c #D68C2F",
"O.	c #D28627",
"P.	c #E0A14B",
"Q.	c #FBCF75",
"R.	c #E4C473",
"S.	c #260000",
"T.	c #964A20",
"U.	c #B05D2B",
"V.	c #AD5B2A",
"W.	c #E5C473",
"  . . + @ # $ % .                 . . + @ # & $ *               ",
"$ $ $ $ $ $ $ $ $ $ $ $ $ $ $ $ $ $ $ $ $ $ $ $ $ $ $ $ $ $ $ $ ",
"= - ; > , ' $ ) ! ~ { = = = = = = - ; > , ' ] ^ ! ~ { = = = = = ",
"/ ( _ : < [ $ } | 1 2 3 3 3 4 5 6 7 _ : < [ 8 9 | 1 2 3 3 3 3 3 ",
"0 a b c d e $ f g h i j j k l m n a b c d e o p g h i j j j j j ",
"q r s t u v $ w x y z A A A B C D E F t u v G H x y z A A A A A ",
"I J K L M N $ O P Q R S S T U V W X Y L M N Z ` P Q R S S S S S ",
" ...+.@.N #.$ O $.%.&.*.=.-.;.>.,.'.).@.N #.!.~.$.%.&.*.=.{.].].",
"$ $ $ $ $ $ $ $ $ $ $ $ $ $ $ $ $ $ $ $ $ $ $ $ $ $ $ $ $ $ $ $ ",
"$ $ $ $ $ $ $ $ $ $ $ $ $ $ $ $ $ $ $ $ $ $ $ $ $ $ $ $ $ $ $ $ ",
"^.^./.(._.:.<.[.}.|.1.2.3.4.$ f 5.6.7.(._.:.8.[.}.|.1.2.3.4.$ # ",
"3 3 3 3 3 3 4 5 6 7 _ : < [ $ } | 1 2 3 3 3 4 5 6 7 _ : < [ $ # ",
"j j j j j k l m n a b c d e $ f g h i j j k l m n a b c d 9.$ @ ",
"A A A A A A B C D E F t u v $ w x y z A A A B C D E F t u 0.$ a.",
"S S S S S T U V W X Y L M N $ O P Q R S S T U V W X Y L M b.$ $ ",
"*.].].*.=.-.;.>.,.'.).@.N #.$ O $.%.&.*.=.-.;.>.,.'.).@.N c.$ $ ",
"$ $ $ $ $ $ $ $ $ $ $ $ $ $ $ $ $ $ $ $ $ $ $ $ $ $ $ $ $ $ $ $ ",
"$ $ $ $ $ $ $ $ $ $ $ $ $ $ $ $ $ $ $ $ $ $ $ $ $ $ $ $ $ $ $ $ ",
"d.|.1.2.3.4.$ f 5.6.7.(._.:.<.[.}.|.1.2.3.4.$ f 5.6.7.(._.:.e.f.",
"/ ( _ : < [ $ } | 1 2 3 3 3 4 5 6 7 _ : < [ $ } | 1 2 3 3 3 3 3 ",
"0 a b c d e $ f g h i j j k l m n a b c d e $ f g h i j j j j j ",
"q r s t u v $ w x y z A A A B C D E F t u v $ w x y z A A A A A ",
"I J K L M N $ O P Q R S S T U V W X Y L M N $ O P Q R S S S S S ",
" ...+.@.N #.$ O $.%.&.*.=.-.;.>.,.'.).@.N #.$ O $.%.&.*.=.{.].].",
"$ $ $ $ $ $ $ $ $ $ $ $ $ $ $ $ $ $ $ $ $ $ $ $ $ $ $ $ $ $ $ $ ",
"$ $ $ $ $ $ $ $ $ $ $ $ $ $ $ $ $ $ $ $ $ $ $ $ $ $ $ $ $ $ $ $ ",
"^.^./.(._.:.<.[.}.|.1.2.3.4.$ f 5.6.7.(._.:.<.[.}.|.1.2.3.4.$ # ",
"3 3 3 3 3 3 4 5 6 7 _ : < [ $ } | 1 2 3 3 3 4 5 6 7 _ : < [ $ # ",
"j j j j j k l m n a b c d e $ f g h i j j k l m n a b c d 9.$ @ ",
"g.g.g.g.g.g.h.i.j.k.l.m.n.o.$ a.p.q.r.g.g.g.h.i.j.k.l.m.n.s.$ p ",
"t.t.t.t.t.u.v.w.x.y.z.A.B.C.$ D.E.F.G.t.t.u.v.w.x.y.z.A.B.H.$ $ ",
"I.I.I.I.I.J.K.L.M.N.O.P.Q.R.$ S.T.U.V.I.I.J.K.L.M.N.O.P.Q.W.$ $ "};
