/* XPM */
static char * w_tl_xpm[] = {
"32 32 268 2",
"  	c #000000",
". 	c #000F11",
"+ 	c #000A10",
"@ 	c #00000E",
"# 	c #00000D",
"$ 	c #0F1110",
"% 	c #000E11",
"& 	c #000B0E",
"* 	c #000E10",
"= 	c #611700",
"- 	c #732C0F",
"; 	c #914621",
"> 	c #884522",
", 	c #1A070B",
"' 	c #581905",
") 	c #681E02",
"! 	c #661E03",
"~ 	c #651D03",
"{ 	c #641B02",
"] 	c #050102",
"^ 	c #690500",
"/ 	c #85350C",
"( 	c #AF5D23",
"_ 	c #A75D25",
": 	c #120009",
"< 	c #631700",
"[ 	c #751F00",
"} 	c #731E00",
"| 	c #721E00",
"1 	c #721F00",
"2 	c #711D00",
"3 	c #701A00",
"4 	c #6E1300",
"5 	c #060003",
"6 	c #621B02",
"7 	c #701D00",
"8 	c #BF711F",
"9 	c #B87122",
"0 	c #00000A",
"a 	c #5C0C00",
"b 	c #6F1800",
"c 	c #6D1800",
"d 	c #6C1700",
"e 	c #6C1800",
"f 	c #6C1900",
"g 	c #6B1300",
"h 	c #670200",
"i 	c #620000",
"j 	c #5A0000",
"k 	c #853A07",
"l 	c #000004",
"m 	c #631C02",
"n 	c #711E00",
"o 	c #D89844",
"p 	c #CD9444",
"q 	c #000002",
"r 	c #6E260B",
"s 	c #84350F",
"t 	c #82340F",
"u 	c #80330F",
"v 	c #7F310E",
"w 	c #833910",
"x 	c #8C4512",
"y 	c #8C4710",
"z 	c #863E08",
"A 	c #A66627",
"B 	c #000001",
"C 	c #701C02",
"D 	c #843611",
"E 	c #8F431C",
"F 	c #A95625",
"G 	c #A65425",
"H 	c #A45324",
"I 	c #A35224",
"J 	c #A14F24",
"K 	c #AC5F26",
"L 	c #C1792B",
"M 	c #C98029",
"N 	c #C57921",
"O 	c #D69744",
"P 	c #F8C66C",
"Q 	c #E3BC6A",
"R 	c #140000",
"S 	c #521603",
"T 	c #5F1601",
"U 	c #5C1101",
"V 	c #6E280C",
"W 	c #87431E",
"X 	c #9F5527",
"Y 	c #9C5327",
"Z 	c #9A5226",
"` 	c #995126",
" .	c #995025",
"..	c #984D25",
"+.	c #A45E28",
"@.	c #BA782C",
"#.	c #C2802B",
"$.	c #BF7A24",
"%.	c #CB9244",
"&.	c #CEB268",
"*.	c #180000",
"=.	c #9A5126",
"-.	c #9B5226",
";.	c #81421F",
">.	c #A05923",
",.	c #B16E25",
"'.	c #C68F43",
").	c #D7B062",
"!.	c #C0A45E",
"~.	c #5D1300",
"{.	c #702A0E",
"].	c #8F4520",
"^.	c #864422",
"/.	c #611502",
"(.	c #5F0F00",
"_.	c #5C0000",
":.	c #5E0100",
"<.	c #621800",
"[.	c #651E04",
"}.	c #621B03",
"|.	c #601801",
"1.	c #8A431E",
"2.	c #AA5A21",
"3.	c #BB7024",
"4.	c #D49644",
"5.	c #EEBC65",
"6.	c #712C0F",
"7.	c #86380E",
"8.	c #8D4410",
"9.	c #AC6C2B",
"0.	c #D39545",
"a.	c #C48E43",
"b.	c #5C0F00",
"c.	c #701C00",
"d.	c #6F1C02",
"e.	c #833511",
"f.	c #A05023",
"g.	c #944E24",
"h.	c #B97122",
"i.	c #5F1802",
"j.	c #6B1201",
"k.	c #671902",
"l.	c #8F4A11",
"m.	c #C17925",
"n.	c #B87727",
"o.	c #5E1401",
"p.	c #701D02",
"q.	c #A25123",
"r.	c #964F24",
"s.	c #CE9544",
"t.	c #000003",
"u.	c #6C1200",
"v.	c #681402",
"w.	c #904B12",
"x.	c #C27A27",
"y.	c #B97828",
"z.	c #5F1401",
"A.	c #E5BC6A",
"B.	c #611B02",
"C.	c #6E1800",
"D.	c #6C1602",
"E.	c #8F4814",
"F.	c #BB7329",
"G.	c #B17129",
"H.	c #4E0E03",
"I.	c #5E1501",
"J.	c #5C1102",
"K.	c #88401A",
"L.	c #7E3E1B",
"M.	c #CFB268",
"N.	c #6F1C00",
"O.	c #6E1A02",
"P.	c #863C12",
"Q.	c #A95D25",
"R.	c #9E5B26",
"S.	c #701E00",
"T.	c #6F1D01",
"U.	c #823410",
"V.	c #9E4E23",
"W.	c #934B23",
"X.	c #823511",
"Y.	c #9F4F22",
"Z.	c #934C23",
"`.	c #7E401E",
" +	c #9F5922",
".+	c #C58F43",
"++	c #5C0800",
"@+	c #B16E24",
"#+	c #C28D41",
"$+	c #D3AD60",
"%+	c #CFAA61",
"&+	c #934D23",
"*+	c #88421D",
"=+	c #A95A21",
"-+	c #5A0600",
";+	c #6F1B00",
">+	c #BA7023",
",+	c #D09242",
"'+	c #EAB863",
")+	c #E7B664",
"!+	c #6F2B0E",
"~+	c #8C440F",
"{+	c #A96929",
"]+	c #CF9243",
"^+	c #D49345",
"/+	c #5C1501",
"(+	c #6A1101",
"_+	c #661802",
":+	c #8B4610",
"<+	c #BE7625",
"[+	c #C97F29",
"}+	c #5D1601",
"|+	c #6B1200",
"1+	c #681301",
"2+	c #8C4811",
"3+	c #BE7726",
"4+	c #CE832C",
"5+	c #531604",
"6+	c #5F1902",
"7+	c #6C1502",
"8+	c #8B4513",
"9+	c #B77027",
"0+	c #C57C2E",
"a+	c #611B03",
"b+	c #601700",
"c+	c #80411E",
"d+	c #6F1C01",
"e+	c #803310",
"f+	c #9C4E22",
"g+	c #974F25",
"h+	c #2D1105",
"i+	c #6F1B01",
"j+	c #9D4F22",
"k+	c #984F26",
"l+	c #944E23",
"m+	c #230802",
"n+	c #8F4911",
"o+	c #C17825",
"p+	c #B77627",
"q+	c #5D1401",
"r+	c #954E23",
"s+	c #1C0300",
"t+	c #984F25",
"u+	c #6C1300",
"v+	c #681302",
"w+	c #904A12",
"x+	c #C17927",
"y+	c #5D1402",
"z+	c #984F24",
"A+	c #682006",
"B+	c #741D04",
"C+	c #721C06",
"D+	c #944E17",
"E+	c #BF7729",
"F+	c #B7772B",
"G+	c #681F05",
"H+	c #7B2907",
"I+	c #7D2E0D",
"J+	c #8B431A",
"K+	c #8F471F",
"L+	c #88461F",
"M+	c #2B0C04",
"N+	c #661E05",
"O+	c #731D04",
"P+	c #7D2E0C",
"Q+	c #8A411A",
"R+	c #8C461E",
"S+	c #894721",
"    . + @ #   $ . % % % % % % % % . . + @ # &   * % % % % % % % ",
"                                                                ",
"    = - ; >   , ' ) ! ~ ~ ~ ~ ~ ~ { = - ; >   ] ' ) ! ~ ~ ~ ~ ~ ",
"    ^ / ( _   : < [ } | | | 1 2 3 4 ^ / ( _   5 < [ } | | | | | ",
"    6 7 8 9   0 a b c d d e f g h i j k 8 9   l a b c d d d d d ",
"    m n o p   q r s t u u u v w x y z A o p   B r s t u u u u u ",
"    m 2 C D     E F G H H I J K L M N O P Q   R E F G H H H H H ",
"    S T U V     W X Y Z `  ...+.@.#.$.%.Q &.  *.W X Y Z ` =.-.-.",
"                                                                ",
"                                                                ",
"    ;.>.,.'.).!.    ~.{.].^.).!.  0 /.(._.:.<.[.}.|.~.{.].^.  # ",
"    1.2.3.4.5.).    ^ / ( _ 5.).    } | | | 1 2 3 4 ^ / ( _   # ",
"    6.7.8.9.0.a.    b.c.d.e.f.g.    c d d e f g h i j k 8 h.  @ ",
"    i.j.k.l.m.n.    o.2 p.D q.r.    t u u u v w x y z A o s.  t.",
"    |.u.v.w.x.y.    z.2 C D q.r.    G H H I J K L M N O P A.    ",
"    B.C.D.E.F.G.    H.I.J.V K.L.    Y Z `  ...+.@.#.$.%.Q M.    ",
"    B.N.O.P.Q.R.                                                ",
"    B.S.T.U.V.W.                                                ",
"    B.7 d.X.Y.Z.    `. +,..+).!.    ++c.,..+).!.    `. +@+#+$+%+",
"    B.7 d.X.f.&+    *+=+3.4.5.).    -+;+3.4.5.).    *+=+>+,+'+)+",
"    6 7 d.e.f.g.    !+7.8.9.0.a.    b.c.8.9.0.a.    !+7.~+{+]+^+",
"    m n p.D q.r.    /+(+k.l.m.n.    o.2 k.l.m.n.    /+(+_+:+<+[+",
"    m 2 C D q.r.    }+|+v.w.x.y.    z.2 C D q.r.    }+|+1+2+3+4+",
"    5+T J.V K.L.    6+C.D.E.F.G.    H.I.J.V K.L.    6+C.7+8+9+0+",
"                    a+N.O.P.Q.R.                                ",
"                    b+S.T.U.V.W.                                ",
"    c+ +,..+).!.    ++c.d.X.Y.Z.    `. +,..+).!.    ++c.d+e+f+g+",
"    1.2.3.4.5.).    -+;+d.X.f.&+  h+*+=+3.4.5.).    -+;+i+e+j+k+",
"    6.7.8.9.0.a.    b.c.d.X.f.l+  m+!+7.8.9.0.a.    b.c.i+e+j+k+",
"    i.j.k.n+o+p+    q+7 d.X.f.r+  s+/+(+k.n+o+p+    q+7 i+e+j+t+",
"    |.u+v+w+x+n.    y+c.d.X.f.r+  s+}+|+v+w+x+n.    y+c.i+e+j+z+",
"    A+B+C+D+E+F+    G+H+I+J+K+L+  M+N+O+C+D+E+F+    G+H+P+Q+R+S+"};
