/* XPM */
static char * w_tr_xpm[] = {
"32 32 268 2",
"  	c #000000",
". 	c #682006",
"+ 	c #601801",
"@ 	c #5F1802",
"# 	c #712C0F",
"$ 	c #8A431E",
"% 	c #80411E",
"& 	c #531604",
"* 	c #631C02",
"= 	c #621B02",
"- 	c #611B02",
"; 	c #81421F",
"> 	c #521603",
", 	c #690500",
"' 	c #611700",
") 	c #000F11",
"! 	c #741D04",
"~ 	c #6C1300",
"{ 	c #6B1201",
"] 	c #86380E",
"^ 	c #AA5A21",
"/ 	c #9F5922",
"( 	c #5F1601",
"_ 	c #711D00",
": 	c #711E00",
"< 	c #701D00",
"[ 	c #701E00",
"} 	c #6F1C00",
"| 	c #6E1800",
"1 	c #6C1200",
"2 	c #A05923",
"3 	c #85350C",
"4 	c #732C0F",
"5 	c #000A10",
"6 	c #721C06",
"7 	c #681302",
"8 	c #671902",
"9 	c #8D4410",
"0 	c #BB7024",
"a 	c #B16E25",
"b 	c #5C1102",
"c 	c #701C02",
"d 	c #701D02",
"e 	c #6F1C02",
"f 	c #6F1D01",
"g 	c #6E1A02",
"h 	c #6C1602",
"i 	c #681402",
"j 	c #5C1101",
"k 	c #D89844",
"l 	c #BF711F",
"m 	c #AF5D23",
"n 	c #914621",
"o 	c #00000E",
"p 	c #944E17",
"q 	c #904A12",
"r 	c #8F4911",
"s 	c #AC6C2B",
"t 	c #D49644",
"u 	c #C58F43",
"v 	c #6E280C",
"w 	c #843611",
"x 	c #833511",
"y 	c #823511",
"z 	c #823410",
"A 	c #863C12",
"B 	c #8F4814",
"C 	c #904B12",
"D 	c #8F4A11",
"E 	c #C68F43",
"F 	c #CD9444",
"G 	c #B87122",
"H 	c #A75D25",
"I 	c #884522",
"J 	c #00000D",
"K 	c #BF7729",
"L 	c #C17927",
"M 	c #C17825",
"N 	c #D39545",
"O 	c #EEBC65",
"P 	c #D7B062",
"Q 	c #88401A",
"R 	c #A25123",
"S 	c #A05023",
"T 	c #9F4F22",
"U 	c #9E4E23",
"V 	c #A95D25",
"W 	c #BB7329",
"X 	c #C27A27",
"Y 	c #C17925",
"Z 	c #B7772B",
"` 	c #B87727",
" .	c #B77627",
"..	c #C48E43",
"+.	c #C0A45E",
"@.	c #7E3E1B",
"#.	c #964F24",
"$.	c #944E24",
"%.	c #934D23",
"&.	c #934C23",
"*.	c #934B23",
"=.	c #9E5B26",
"-.	c #B17129",
";.	c #B97828",
">.	c #000002",
",.	c #00000A",
"'.	c #120009",
").	c #1A070B",
"!.	c #0F1110",
"~.	c #87431E",
"{.	c #8F431C",
"].	c #6E260B",
"^.	c #5C0C00",
"/.	c #631700",
"(.	c #581905",
"_.	c #9F5527",
":.	c #A95625",
"<.	c #84350F",
"[.	c #6F1800",
"}.	c #751F00",
"|.	c #681E02",
"1.	c #000E11",
"2.	c #681F05",
"3.	c #5D1402",
"4.	c #5D1401",
"5.	c #5C0F00",
"6.	c #5A0600",
"7.	c #5C0800",
"8.	c #601700",
"9.	c #611B03",
"0.	c #5F1902",
"a.	c #5D1601",
"b.	c #5C1501",
"c.	c #6F2B0E",
"d.	c #88421D",
"e.	c #7E401E",
"f.	c #4E0E03",
"g.	c #5F1401",
"h.	c #5E1401",
"i.	c #5D1300",
"j.	c #9C5327",
"k.	c #A65425",
"l.	c #82340F",
"m.	c #6D1800",
"n.	c #731E00",
"o.	c #661E03",
"p.	c #7B2907",
"q.	c #701C00",
"r.	c #6F1B00",
"s.	c #6B1200",
"t.	c #6A1101",
"u.	c #A95A21",
"v.	c #5E1501",
"w.	c #702A0E",
"x.	c #9A5226",
"y.	c #A45324",
"z.	c #80330F",
"A.	c #6C1700",
"B.	c #721E00",
"C.	c #651D03",
"D.	c #7D2E0D",
"E.	c #8F4520",
"F.	c #995126",
"G.	c #8B431A",
"H.	c #864422",
"I.	c #995025",
"J.	c #A35224",
"K.	c #6C1800",
"L.	c #8F471F",
"M.	c #984D25",
"N.	c #A14F24",
"O.	c #7F310E",
"P.	c #6C1900",
"Q.	c #721F00",
"R.	c #88461F",
"S.	c #954E23",
"T.	c #944E23",
"U.	c #A45E28",
"V.	c #AC5F26",
"W.	c #833910",
"X.	c #6B1300",
"Y.	c #BA782C",
"Z.	c #C1792B",
"`.	c #8C4512",
" +	c #670200",
".+	c #701A00",
"++	c #2B0C04",
"@+	c #1C0300",
"#+	c #230802",
"$+	c #2D1105",
"%+	c #C2802B",
"&+	c #C98029",
"*+	c #8C4710",
"=+	c #620000",
"-+	c #6E1300",
";+	c #641B02",
">+	c #661E05",
",+	c #611502",
"'+	c #BF7A24",
")+	c #C57921",
"!+	c #863E08",
"~+	c #5A0000",
"{+	c #731D04",
"]+	c #5F0F00",
"^+	c #CB9244",
"/+	c #D69744",
"(+	c #A66627",
"_+	c #853A07",
":+	c #5C0000",
"<+	c #E3BC6A",
"[+	c #F8C66C",
"}+	c #5E0100",
"|+	c #CEB268",
"1+	c #621800",
"2+	c #000B0E",
"3+	c #651E04",
"4+	c #180000",
"5+	c #140000",
"6+	c #000001",
"7+	c #000004",
"8+	c #060003",
"9+	c #050102",
"0+	c #621B03",
"a+	c #000E10",
"b+	c #7D2E0C",
"c+	c #6F1B01",
"d+	c #6F1C01",
"e+	c #6C1502",
"f+	c #681301",
"g+	c #661802",
"h+	c #8C440F",
"i+	c #BA7023",
"j+	c #B16E24",
"k+	c #8A411A",
"l+	c #803310",
"m+	c #8B4513",
"n+	c #8C4811",
"o+	c #8B4610",
"p+	c #A96929",
"q+	c #D09242",
"r+	c #C28D41",
"s+	c #CFB268",
"t+	c #E5BC6A",
"u+	c #CE9544",
"v+	c #B97122",
"w+	c #9A5126",
"x+	c #8C461E",
"y+	c #9D4F22",
"z+	c #9C4E22",
"A+	c #B77027",
"B+	c #BE7726",
"C+	c #BE7625",
"D+	c #CF9243",
"E+	c #EAB863",
"F+	c #D3AD60",
"G+	c #9B5226",
"H+	c #894721",
"I+	c #984F24",
"J+	c #984F25",
"K+	c #984F26",
"L+	c #974F25",
"M+	c #C57C2E",
"N+	c #CE832C",
"O+	c #C97F29",
"P+	c #D49345",
"Q+	c #E7B664",
"R+	c #CFAA61",
"S+	c #000003",
"                                                                ",
"                                                                ",
". + @ # $ %     & * * = - - - - - + @ # $ ;     > * * = , '   ) ",
"! ~ { ] ^ /     ( _ : < < < [ } | 1 { ] ^ 2     ( _ : < 3 4   5 ",
"6 7 8 9 0 a     b c d e e e f g h i 8 9 0 a     j c k l m n   o ",
"p q r s t u     v w w x y y z A B C D s t E     v w F G H I   J ",
"K L M N O P     Q R R S S T U V W X Y N O P                     ",
"Z `  ...P +.    @.#.#.$.%.&.*.=.-.;.` ..P +.        >.,.'.).  !.",
"                                                ~.{.].^./.(.  ) ",
"                                                _.:.<.[.}.|.  1.",
"2.3.4.5.6.7.8.9.0.a.b.c.d.e.    f.g.h.5., i.    j.k.l.m.n.o.  1.",
"p.q.< q.r.q.[ } | s.t.] u./     v._ _ q.3 w.    x.y.z.A.B.C.  1.",
"D.e e e e e f g h i 8 9 0 a     b c d e m E.    F.y.z.A.B.C.  1.",
"G.y y y y y z A B C D s t u     v w w x H H.    I.J.z.K.B.C.  1.",
"L.S S S S T U V W X Y N O P     Q R R S O P     M.N.O.P.Q.C.  1.",
"R.S.S.T.%.&.*.=.-.;.` ..P +.    @.#.#.$.P +.    U.V.W.X._ C.  1.",
"                                                Y.Z.`. +.+C.  1.",
"++@+@+#+$+                                ,.    %+&+*+=+-+;+  ) ",
">+a.b.c.d.e.    f.g.h.5.6.7.    j.k.l.m.n.,+    '+)+!+~+, '   ) ",
"{+s.t.] u./     v._ _ q.r.q.    x.y.z.A.B.]+    ^+/+(+_+3 4   5 ",
"6 7 8 9 0 a     b c 8 9 0 a     F.y.z.A.B.:+    <+[+k l m n   o ",
"p q r s t u     v w D s t u     I.J.z.K.B.}+    |+<+F G H I   J ",
"K L M N O P     Q R Y N O P     M.N.O.P.Q.1+                  2+",
"Z `  ...P +.    @.#.` ..P +.    U.V.W.X._ 3+    4+5+6+7+8+9+    ",
"                                Y.Z.`. +.+0+    ~.{.].^./.(.  a+",
"                                %+&+*+=+-++     _.:.<.[.}.|.  1.",
"2.3.4.5.6.7.    0.a.b.c.d.e.    '+)+!+~+, i.    j.k.l.m.n.o.  1.",
"p.q.< q.r.q.    | s.t.] u./     ^+/+(+_+3 w.    x.y.z.A.B.C.  1.",
"b+c+c+c+c+d+    e+f+g+h+i+j+    <+[+k l m E.    F.y.z.A.B.C.  1.",
"k+l+l+l+l+l+    m+n+o+p+q+r+    s+t+u+v+H H.    w+y.z.A.B.C.  1.",
"x+y+y+y+y+z+    A+B+C+D+E+F+                    G+y.z.A.B.C.  1.",
"H+I+J+K+K+L+    M+N+O+P+Q+R+        S+o J J     G+y.z.A.B.C.  1."};
