/* XPM */
static char *w_t[] = {
/* columns rows colors chars-per-pixel */
"32 32 12 1 ",
"  c #3F3851",
". c #89365C",
"X c #9E3B57",
"o c #AE444E",
"O c #BF5753",
"+ c #D25654",
"@ c #CD7363",
"# c #E27F6D",
"$ c #EDA27F",
"% c #FBCA97",
"& c #FFEAB7",
"* c #FFFAD6",
/* pixels */
"                                ",
"&*&%%&**&%%$# #$%%&&*&%%$# #$%%&",
"%%%%%%%%%%%%# #%%%%%%%%%%# #%%%%",
"%%%%%%%%%%%%# #%%%%%%%%%%# #%%%%",
"%%%%%%%%%%%$# #$%%%%%%%%$# #$%%%",
"%%%%%%%%%%$## ##$%%%%%%$## ##$%%",
"############# ############ #####",
"############+ +##########+ +####",
"                                ",
"                                ",
" .XoooX.         .XoooX.        ",
" XoooooX .ooooo. XoooooX .ooooo.",
"                                ",
"ooo. .oooo. .oooooo. .oooo. .ooo",
"@@@O O@@@@O O@@@@@@O O@@@@O O@@@",
"@@@o o@@@@o o@@@@@@o o@@@@o o@@@",
"                                ",
" o@@@@@o o@@@@@o o@@@@@o o@@@@@o",
" @@@@@@@ @@@@@@@ @@@@@@@ @@@@@@@",
" o@@@@@o o@@@@@o o@@@@@o o@@@@@o",
"                                ",
"@@@o O@@@@O o@@@@@@o O@@@@O o@@@",
"@@@@ oO@@Oo @@@@@@@@ oO@@Oo @@@@",
"@@@o        o@@@@@@o        o@@@",
"                                ",
"                                ",
"                                ",
"                                ",
"                                ",
"                                ",
"                                ",
"                                "
};
