/* XPM */
static char *door[] = {
/* columns rows colors chars-per-pixel */
"32 32 34 1 ",
"  c #3F3851",
". c #413952",
"X c #433B53",
"o c #473E55",
"O c #4A3F56",
"+ c #4A4056",
"@ c #4E4258",
"# c #514459",
"$ c #54475B",
"% c #56485C",
"& c #584A5D",
"* c #6E5967",
"= c #926475",
"- c #AD707B",
"; c #A67A7B",
": c #D2727E",
"> c #5D7889",
", c #728896",
"< c #B98080",
"1 c #B7958C",
"2 c #86A0A8",
"3 c #D5978F",
"4 c #C39490",
"5 c #E28989",
"6 c #C8A395",
"7 c #D9B09D",
"8 c #E5A295",
"9 c #EDA799",
"0 c #E2B7A1",
"q c #D0C2B2",
"w c #FBCAAE",
"e c #E1D3BE",
"r c #EADCC4",
"t c #FAEBCF",
/* pixels */
"         %************%         ",
"       #%09*tw9*9www*90%#       ",
"     #%3www*www*wwww*www3%#     ",
"    #3ttwww*www*wwww*wwwtt3#    ",
"   #3twwww9*ww9*9www*9wwwwt3#   ",
"  #3twww955*555*5555*559wwwt3#  ",
"  %wwww955:**********:559wwww%  ",
" #3www955***-=**>**=***559www3# ",
" %wwww55***=--**>**-=***55wwww% ",
" 3www95*********>********59www3+",
" wwww55**=---=**>********55wwww$",
" wwww5**=--<4-**,**-4<-=**5wwww#",
" 9ww95**---44-**,**-44--**59ww9#",
" ***************,**************@",
" twww5*444444-*****-44444*5wwwt@",
" twww5*-44444*22*22*4444-*5wwwtO",
" wwww5********,2*,2*******5wwwwo",
" twww5********,2*,2*4444-*5wwwto",
" wwww5**=----*,2*,2*4444-*5wwww.",
" 9ww95********,2*,2*******59ww9.",
" ******-44444*,2*,2************ ",
" 9ww95*444444*,2*,2*---=**59ww8 ",
" twww5*-44444*,2*,2*---=**5wwwr ",
" twww5********,2*,2*******5wwwe ",
" wwww5*-44444*>2*>2*44444*5www7 ",
" twww5****-44-**>**-4-****5wwwq ",
" wwww5*,2,*444<*>*<44*,2,*5www6 ",
" wwww5*>,>*4444*,*444*>,>*5www1 ",
" wwww5****-444-*,*444-****5www1.",
" 9ww95**********,*********59ww;.",
" ******=-----=**>*-44444-*****&.",
"                               ."
};
