/* XPM */
static char * key_xpm[] = {
"32 32 7 1",
" 	c #3F3851",
".	c #000000",
"+	c #F8F8F8",
"@	c #C00010",
"#	c #F81810",
"$	c #F88010",
"%	c #F8B880",
"                                ",
"                                ",
"                                ",
"                                ",
"                                ",
"                                ",
"                                ",
"                                ",
"                                ",
"             ......             ",
"           ..++@@++..           ",
"          .@+++##+++@.          ",
"         .@#++####++#@.         ",
"         .+###$$$$###+.         ",
"        .+++#$++++$#+++.        ",
"        .+++#++++++#+++.        ",
"        .+++#++++++#+++.        ",
"        .++##++++++##++.        ",
"        .@#@@@++++@@@#@.        ",
"        .@@..........@@.        ",
"         ...%%.%%.%%...         ",
"          .%++.++.++%.          ",
"          .%++++++++%.          ",
"           .%%%%%%%%.           ",
"            ........            ",
"                                ",
"                                ",
"                                ",
"                                ",
"                                ",
"                                ",
"                                "};
