/* XPM */
static char * obst_xpm[] = {
"32 32 5 1",
" 	c #101010",
".	c #F8D078",
"+	c #D08830",
"@	c #A85828",
"#	c #702000",
" .++@@@@ .++@@@@ .++@@@@ .++@@@@",
" +###### +###### +###### +######",
" @###### @###### @###### @######",
"                                ",
"@@@@ .++@@@@ .++@@@@ .++@@@@ .++",
"#### +###### +###### +###### +##",
"#### @###### @###### @###### @##",
"                                ",
" .++@@@@ .++@@@@ .++@@@@ .++@@@@",
" +###### +###### +###### +######",
" @###### @###### @###### @######",
"                                ",
"@@@@ .++@@@@ .++@@@@ .++@@@@ .++",
"#### +###### +###### +###### +##",
"#### @###### @###### @###### @##",
"                                ",
" .++@@@@ .++@@@@ .++@@@@ .++@@@@",
" +###### +###### +###### +######",
" @###### @###### @###### @######",
"                                ",
"@@@@ .++@@@@ .++@@@@ .++@@@@ .++",
"#### +###### +###### +###### +##",
"#### @###### @###### @###### @##",
"                                ",
" .++@@@@ .++@@@@ .++@@@@ .++@@@@",
" +###### +###### +###### +######",
" @###### @###### @###### @######",
"                                ",
"@@@@ .++@@@@ .++@@@@ .++@@@@ .++",
"#### +###### +###### +###### +##",
"#### @###### @###### @###### @##",
"                                "};
