/* XPM */
static char * w_bl_xpm[] = {
"32 32 7 1",
" 	c #D0C0B0",
".	c #B0A090",
"+	c #908070",
"@	c #685848",
"#	c #283028",
"$	c #3F3851",
"%	c #F8F8F8",
"  .+@##@@######$$$$$$$$$$$$$$$$$",
" ..+@##@@#%.+@#$$$$$$$$$$$$$$$$$",
" .++@#####.++@#$$$$$$$$$$$$$$$$$",
" .+@###@@#++@@#$$$$$$$$$$$$$$$$$",
" .++@##@@#+@@##$$$$$$$$$$$$$$$$$",
" ..+@##@@######$$$$$$$$$$$$$$$$$",
"  .+@##@@@#+@@#$$$$$$$$$$$$$$$$$",
"% .+@##@@@#+@@#$$$$$$$$$$$$$$$$$",
"  .+@##########$$$$$$$$$$$$$$$$$",
" ..+@##@@.+@##$$$$$$$$$$$$$$$$$$",
" .++@##@@+@@@#$$$$$$$$$$$$$$$$$$",
" .+@###@@@#####$$$$$$$$$$$$$$$$$",
" .++@##@@@#..+#$$$$$$$$$$$$$$$$$",
" ..+@##@@@#.+@#$$$$$$$$$$$$$$$$$",
"  .+@######+@@#$$$$$$$$$$$$$$$$$",
"% .+@###@@######$$$$$$$$$$$$$$$$",
"%.++@@##@@#%.+@#$$$$$$$$$$$$$$$$",
"+@@@+@#####.++@##########$$#####",
"@++++@##@@#+.+@##@@@##@@####+@@@",
"+@+.+@##@@#+@@@##++@@#@@##@#.+@@",
".+@++@##@@#######.++@#++#@@#..+@",
" +@++@##@@@#+@@##%.++####+@#####",
"% +@+@##@@@#+@@#######@@#.+@@@#+",
"@@ +@@@#########@@#@@@@@#@@@@@#@",
"@@+@+++@##@@.+@#@@#@@@@@#@@@@@#@",
"##@+..+@##@@+@@@################",
"##+  .+@##@@@###################",
"@@%% .+@##@@@#..@@@#@@@@@@@#@@@@",
"++%  .+@##@@@#.++++@+++++++@++++",
"..% ..+@######+@..+++.....+++...",
" .% .++@##@@+#@@ .....   .....  ",
"       %       %       %       %"};
