/* XPM */
static char * w_tl_xpm[] = {
"32 32 7 1",
" 	c #D0C0B0",
".	c #B0A090",
"+	c #908070",
"@	c #685848",
"#	c #283028",
"$	c #F8F8F8",
"%	c #3F3851",
"  .+@##@@$ .+@+$$       $       ",
" ..+@##@@ ++@+@.  .....   ..... ",
" $$$$+@+ +@@++@+...+++.....+++..",
"    $ +@+@++.+@+++++@+++++++@+++",
" ..   .+@++++++@@@@@#@@@@@@@#@@@",
" +.....+@@@@@@@@################",
" +++++++@#######################",
"$@@@@@@@##########@@@@@#@@@@@#@@",
" ########@@@@@#@@#@@@@@#@@@@@#@@",
" ########@@@@@#@@#@@@+.#@@######",
" @#@@@@@#@@##########@+####++.$#",
" @#@@@@@####++.$#+..#@@#++#@++.#",
" +#@@@+.#++#@.+.#@+.#@##@@#@@++#",
" #####@+#@@#@+++#@@+####@@##@@@#",
" @+..#@@#@@#@@@@#####%%#########",
"$@@+.#@##########%%%%%%%%%%%%%%%",
"  .+@##@@######%%%%%%%%%%%%%%%%%",
" ..+@##@@#$.+@#%%%%%%%%%%%%%%%%%",
" .++@#####.++@#%%%%%%%%%%%%%%%%%",
" .+@###@@#++@@#%%%%%%%%%%%%%%%%%",
" .++@##@@#+@@##%%%%%%%%%%%%%%%%%",
" ..+@##@@######%%%%%%%%%%%%%%%%%",
"  .+@##@@@#+@@#%%%%%%%%%%%%%%%%%",
"$ .+@##@@@#+@@#%%%%%%%%%%%%%%%%%",
"  .+@##########%%%%%%%%%%%%%%%%%",
" ..+@##@@.+@##%%%%%%%%%%%%%%%%%%",
" .++@##@@+@@@#%%%%%%%%%%%%%%%%%%",
" .+@###@@@#####%%%%%%%%%%%%%%%%%",
" .++@##@@@#..+#%%%%%%%%%%%%%%%%%",
" ..+@##@@@#.+@#%%%%%%%%%%%%%%%%%",
"  .+@######+@@#%%%%%%%%%%%%%%%%%",
"$ .+@##@@+#@@@#%%%%%%%%%%%%%%%%%"};
