/* XPM */
static char * 3_xpm[] = {
"32 32 15 1",
" 	c #3F3851",
".	c #000000",
"+	c #C80018",
"@	c #F82038",
"#	c #A00000",
"$	c #E86050",
"%	c #F09058",
"&	c #F8B880",
"*	c #F8F8F8",
"=	c #4898D0",
"-	c #284880",
";	c #3870A8",
">	c #A85000",
",	c #E08030",
"'	c #F0C830",
"                                ",
"                                ",
"               ....             ",
"             ..++@@.            ",
"            .+++++@.            ",
"           .#+##......          ",
"          .###.........         ",
"          .##..$$$$...          ",
"         .....$%%.%.            ",
"         .%%..$%%.%...          ",
"         .%%...$%%%&&&.         ",
"         .$%$.$%.$%%%%.         ",
"          .$$$%...$$$.          ",
"           ..$$%%....           ",
"          ....$$$$$.            ",
"          .#+......             ",
"         .#+@+..***.            ",
"         .#+@+.&****.           ",
"         .#++@.&&***.           ",
"         ..#+++.&&&...          ",
"         ...###....=*.          ",
"          .-...;**==*.          ",
"          .---;;;==;;.          ",
"          .--;;;;;;;.           ",
"          .---------.           ",
"           .........            ",
"           .>>,,'.              ",
"           .>>>,,'.             ",
"           ........             ",
"                                ",
"                                ",
"                                "};
